%TF.GenerationSoftware,KiCad,Pcbnew,(6.0.1)*%
%TF.CreationDate,2022-02-13T21:37:46-07:00*%
%TF.ProjectId,GAL_to_bipolar,47414c5f-746f-45f6-9269-706f6c61722e,rev?*%
%TF.SameCoordinates,Original*%
%TF.FileFunction,Legend,Top*%
%TF.FilePolarity,Positive*%
%FSLAX46Y46*%
G04 Gerber Fmt 4.6, Leading zero omitted, Abs format (unit mm)*
G04 Created by KiCad (PCBNEW (6.0.1)) date 2022-02-13 21:37:46*
%MOMM*%
%LPD*%
G01*
G04 APERTURE LIST*
%ADD10C,0.203200*%
%ADD11C,0.254000*%
%ADD12C,0.120000*%
G04 APERTURE END LIST*
D10*
X141296571Y-69499238D02*
X140135428Y-69499238D01*
X140716000Y-69499238D02*
X140716000Y-67467238D01*
X140522476Y-67757523D01*
X140328952Y-67951047D01*
X140135428Y-68047809D01*
D11*
X137795000Y-66675000D02*
X140334999Y-66674999D01*
X137160000Y-63500000D02*
X137160000Y-66040000D01*
X140335000Y-62865000D02*
X137795000Y-62865000D01*
X140970000Y-63500000D02*
X140969999Y-66039999D01*
X137160003Y-66040000D02*
G75*
G03*
X137795000Y-66675000I634997J-3D01*
G01*
X140969997Y-63500000D02*
G75*
G03*
X140335000Y-62865000I-634997J3D01*
G01*
X140334999Y-66674996D02*
G75*
G03*
X140969999Y-66039999I3J634997D01*
G01*
X137795000Y-62865003D02*
G75*
G03*
X137160000Y-63500000I-3J-634997D01*
G01*
X139065000Y-66040000D02*
X140335000Y-63500000D01*
X138430000Y-64770000D02*
X139065000Y-66040000D01*
X139065000Y-63500000D02*
X140335000Y-66040000D01*
X137795000Y-66040000D02*
X139065000Y-63500000D01*
D12*
%TO.C,J2*%
X148590000Y-65405000D02*
X143510000Y-65405000D01*
X143510000Y-65405000D02*
X143510000Y-89535000D01*
X148590000Y-89535000D02*
X146685000Y-89535000D01*
X143510000Y-89535000D02*
X145415000Y-89535000D01*
X148590000Y-89535000D02*
X148590000Y-65405000D01*
X146685000Y-89535000D02*
G75*
G03*
X145415000Y-89535000I-635000J0D01*
G01*
%TO.C,J1*%
X137160000Y-67310000D02*
X137160000Y-69850000D01*
X137160000Y-69850000D02*
X139700000Y-69850000D01*
X139700000Y-69850000D02*
X139700000Y-67310000D01*
X139700000Y-67310000D02*
X137160000Y-67310000D01*
%TD*%
M02*
