M48
; DRILL file {KiCad (6.0.1)} date Sun Feb 13 21:37:48 2022
; FORMAT={-:-/ absolute / inch / decimal}
; #@! TF.CreationDate,2022-02-13T21:37:48-07:00
; #@! TF.GenerationSoftware,Kicad,Pcbnew,(6.0.1)
; #@! TF.FileFunction,Plated,1,2,PTH
FMAT,2
INCH
; #@! TA.AperFunction,Plated,PTH,ComponentDrill
T1C0.0400
%
G90
G05
T1
X5.45Y-2.7
X5.45Y-2.8
X5.45Y-2.9
X5.45Y-3.0
X5.45Y-3.1
X5.45Y-3.2
X5.45Y-3.3
X5.45Y-3.4
X5.6Y-2.6
X5.6Y-2.7
X5.6Y-2.8
X5.6Y-2.9
X5.6Y-3.0
X5.6Y-3.1
X5.6Y-3.2
X5.6Y-3.3
X5.6Y-3.4
X5.6Y-3.5
X5.75Y-2.7
X5.75Y-2.8
X5.75Y-2.9
X5.75Y-3.0
X5.75Y-3.1
X5.75Y-3.2
X5.75Y-3.3
X5.75Y-3.4
X5.9Y-2.6
X5.9Y-2.7
X5.9Y-2.8
X5.9Y-2.9
X5.9Y-3.0
X5.9Y-3.1
X5.9Y-3.2
X5.9Y-3.3
X5.9Y-3.4
X5.9Y-3.5
T0
M30
