M48
; DRILL file {KiCad (6.0.1)} date Tue Feb  8 00:07:33 2022
; FORMAT={-:-/ absolute / inch / decimal}
; #@! TF.CreationDate,2022-02-08T00:07:33-07:00
; #@! TF.GenerationSoftware,Kicad,Pcbnew,(6.0.1)
; #@! TF.FileFunction,Plated,1,2,PTH
FMAT,2
INCH
; #@! TA.AperFunction,Plated,PTH,ComponentDrill
T1C0.0300
; #@! TA.AperFunction,Plated,PTH,ViaDrill
T2C0.0400
; #@! TA.AperFunction,Plated,PTH,ComponentDrill
T3C0.0400
; #@! TA.AperFunction,Plated,PTH,ComponentDrill
T4C0.0600
; #@! TA.AperFunction,Plated,PTH,ComponentDrill
T5C0.1500
; #@! TA.AperFunction,Plated,PTH,ComponentDrill
T6C0.2000
%
G90
G05
T1
X2.465Y-2.14
X2.565Y-2.14
X9.07Y-6.535
X9.38Y-2.22
X9.38Y-3.72
X9.48Y-2.12
X9.48Y-3.62
X9.58Y-2.22
X9.58Y-3.72
X9.77Y-6.535
X10.135Y-6.17
X10.235Y-6.07
X10.335Y-6.17
X10.59Y-3.665
X10.595Y-2.22
X10.64Y-6.17
X10.69Y-3.565
X10.695Y-2.12
X10.74Y-6.07
X10.79Y-3.665
X10.795Y-2.22
X10.84Y-6.17
X11.01Y-13.86
X11.01Y-14.56
X11.31Y-2.165
X11.41Y-2.065
X11.51Y-2.165
X11.6Y-6.53
X11.705Y-3.71
X11.805Y-3.61
X11.905Y-3.71
X12.3Y-6.53
T2
X1.66Y-6.095
X1.675Y-18.88
X1.68Y-19.885
X1.71Y-6.595
X1.71Y-10.235
X1.71Y-17.715
X1.715Y-18.1
X1.732Y-15.152
X1.74Y-15.85
X1.755Y-16.225
X1.775Y-16.34
X1.775Y-17.995
X1.78Y-20.99
X1.79Y-18.17
X1.815Y-19.33
X1.845Y-18.27
X1.855Y-6.03
X1.86Y-17.77
X1.87Y-13.44
X1.88Y-12.315
X1.89Y-16.28
X1.89Y-16.405
X1.895Y-19.94
X1.9Y-19.84
X1.925Y-17.845
X1.94Y-7.6
X1.975Y-19.79
X1.98Y-10.16
X2.01Y-15.075
X2.02Y-5.865
X2.02Y-18.175
X2.025Y-19.455
X2.035Y-10.0
X2.04Y-16.315
X2.04Y-16.535
X2.055Y-19.735
X2.065Y-5.95
X2.07Y-17.62
X2.095Y-16.405
X2.095Y-18.12
X2.12Y-19.51
X2.13Y-19.69
X2.14Y-16.61
X2.16Y-7.625
X2.22Y-18.095
X2.23Y-19.56
X2.25Y-12.525
X2.265Y-15.6
X2.28Y-15.785
X2.285Y-17.41
X2.29Y-17.21
X2.29Y-17.31
X2.3Y-19.63
X2.325Y-16.985
X2.325Y-17.08
X2.33Y-6.095
X2.33Y-6.945
X2.355Y-19.935
X2.4Y-18.07
X2.415Y-6.31
X2.415Y-7.04
X2.415Y-15.4
X2.43Y-19.33
X2.46Y-20.29
X2.47Y-14.8
X2.4775Y-7.1425
X2.485Y-8.425
X2.495Y-6.26
X2.5Y-19.08
X2.505Y-12.525
X2.51Y-20.21
X2.515Y-7.34
X2.52Y-14.995
X2.525Y-13.675
X2.53Y-6.555
X2.545Y-16.48
X2.545Y-16.61
X2.545Y-17.645
X2.56Y-20.14
X2.565Y-8.3
X2.575Y-6.24
X2.575Y-14.135
X2.575Y-15.13
X2.58Y-17.95
X2.6Y-7.4
X2.625Y-16.585
X2.63Y-20.19
X2.645Y-12.315
X2.67Y-7.6
X2.675Y-16.38
X2.7Y-15.205
X2.71Y-17.69
X2.715Y-17.895
X2.725Y-16.46
X2.775Y-6.11
X2.775Y-16.61
X2.8Y-16.385
X2.815Y-7.63
X2.85Y-6.155
X2.85Y-8.475
X2.87Y-8.58
X2.875Y-16.405
X2.88Y-19.36
X2.915Y-18.07
X2.92Y-6.214
X2.965Y-12.52
X2.975Y-8.55
X2.975Y-15.2
X2.995Y-15.95
X3.005Y-6.646
X3.01Y-17.925
X3.02Y-2.19
X3.03Y-15.035
X3.05Y-16.31
X3.07Y-8.525
X3.07Y-9.155
X3.075Y-14.795
X3.095Y-9.0
X3.115Y-2.635
X3.145Y-8.35
X3.18Y-15.51
X3.18Y-15.88
X3.205Y-18.515
X3.225Y-16.235
X3.24Y-6.586
X3.24Y-9.08
X3.25Y-9.155
X3.275Y-16.41
X3.29Y-18.095
X3.3Y-17.29
X3.3Y-17.36
X3.315Y-17.715
X3.325Y-9.71
X3.345Y-14.9
X3.345Y-17.87
X3.36Y-14.715
X3.37Y-18.07
X3.39Y-12.225
X3.39Y-13.36
X3.391Y-1.389
X3.4Y-9.805
X3.401Y-1.509
X3.405Y-16.56
X3.42Y-10.085
X3.44Y-17.69
X3.4575Y-12.315
X3.46Y-13.59
X3.475Y-14.715
X3.475Y-14.945
X3.48Y-9.71
X3.49Y-17.945
X3.495Y-9.885
X3.55Y-8.445
X3.575Y-9.63
X3.585Y-18.14
X3.59Y-12.06
X3.61Y-16.485
X3.62Y-1.385
X3.62Y-1.5
X3.64Y-12.13
X3.64Y-20.745
X3.65Y-11.9054
X3.66Y-13.64
X3.665Y-18.17
X3.685Y-15.0
X3.695Y-9.695
X3.695Y-13.36
X3.7Y-8.445
X3.715Y-16.615
X3.74Y-21.29
X3.75Y-1.64
X3.76Y-16.83
X3.79Y-13.51
X3.79Y-20.51
X3.805Y-16.355
X3.81Y-7.39
X3.815Y-17.995
X3.825Y-9.805
X3.845Y-13.2
X3.85Y-20.79
X3.87Y-21.11
X3.875Y-9.72
X3.89Y-14.715
X3.89Y-16.585
X3.89Y-21.27
X3.896Y-12.058
X3.898Y-6.532
X3.9Y-1.54
X3.9Y-18.02
X3.905Y-12.775
X3.91Y-16.46
X3.94Y-10.465
X3.94Y-19.495
X3.95Y-17.01
X3.95Y-17.11
X3.975Y-6.69
X3.985Y-18.13
X3.99Y-15.155
X4.004Y-6.482
X4.01Y-1.44
X4.025Y-12.06
X4.0425Y-8.7575
X4.045Y-12.925
X4.045Y-18.2
X4.05Y-9.2
X4.06Y-17.825
X4.065Y-14.62
X4.085Y-15.75
X4.09Y-14.845
X4.105Y-12.315
X4.1075Y-7.6425
X4.115Y-7.825
X4.115Y-13.43
X4.12Y-1.36
X4.125Y-17.21
X4.13Y-12.04
X4.145Y-18.17
X4.16Y-2.03
X4.16Y-2.14
X4.16Y-2.24
X4.165Y-8.4
X4.185Y-7.715
X4.195Y-10.155
X4.195Y-13.64
X4.2Y-10.465
X4.2Y-12.225
X4.215Y-14.92
X4.215Y-18.2
X4.22Y-14.8
X4.24Y-5.68
X4.24Y-11.985
X4.24Y-16.435
X4.25Y-19.525
X4.255Y-9.65
X4.255Y-9.735
X4.255Y-21.325
X4.27Y-1.36
X4.33Y-5.68
X4.41Y-9.605
X4.415Y-15.255
X4.42Y-1.36
X4.435Y-9.675
X4.45Y-17.94
X4.45Y-21.325
X4.465Y-7.77
X4.47Y-7.6
X4.495Y-14.975
X4.52Y-7.9
X4.52Y-13.58
X4.545Y-15.25
X4.57Y-17.8
X4.575Y-15.5
X4.58Y-1.36
X4.58Y-16.91
X4.585Y-9.645
X4.61Y-10.33
X4.64Y-12.725
X4.675Y-10.005
X4.695Y-16.48
X4.695Y-17.95
X4.6975Y-14.2075
X4.71Y-9.45
X4.72Y-7.395
X4.722Y-15.598
X4.725Y-15.9
X4.725Y-17.085
X4.74Y-8.93
X4.75Y-1.36
X4.76Y-16.81
X4.775Y-16.53
X4.78Y-21.3
X4.79Y-9.65
X4.81Y-9.725
X4.82Y-14.82
X4.825Y-14.69
X4.845Y-9.35
X4.86Y-18.05
X4.86Y-20.14
X4.87Y-15.725
X4.88Y-12.04
X4.9Y-1.36
X4.93Y-14.69
X4.93Y-14.82
X4.935Y-10.025
X4.96Y-13.35
X4.96Y-16.535
X4.96Y-20.19
X4.965Y-8.33
X4.965Y-13.19
X4.99Y-9.825
X5.01Y-9.975
X5.02Y-8.58
X5.025Y-13.46
X5.03Y-15.15
X5.05Y-16.535
X5.06Y-10.33
X5.075Y-14.85
X5.075Y-16.285
X5.09Y-8.55
X5.09Y-9.855
X5.105Y-1.285
X5.11Y-16.65
X5.135Y-1.695
X5.16Y-9.7
X5.18Y-7.615
X5.21Y-16.205
X5.215Y-10.275
X5.215Y-17.595
X5.245Y-9.675
X5.275Y-6.24
X5.275Y-7.665
X5.29Y-12.1
X5.32Y-9.78
X5.325Y-15.8
X5.33Y-1.695
X5.35Y-6.265
X5.36Y-1.285
X5.38Y-14.198
X5.41Y-1.36
X5.41Y-18.7
X5.43Y-6.315
X5.44Y-17.54
X5.465Y-10.285
X5.465Y-11.91
X5.465Y-16.425
X5.48Y-8.35
X5.485Y-12.245
X5.485Y-14.24
X5.495Y-12.675
X5.515Y-18.47
X5.515Y-19.235
X5.54Y-1.36
X5.575Y-6.015
X5.58Y-15.7
X5.595Y-13.435
X5.615Y-19.16
X5.63Y-5.61
X5.63Y-13.985
X5.63Y-15.81
X5.635Y-17.12
X5.635Y-17.545
X5.64Y-15.91
X5.645Y-10.33
X5.645Y-12.575
X5.645Y-13.65
X5.66Y-6.74
X5.665Y-14.82
X5.69Y-1.36
X5.69Y-19.35
X5.7Y-12.045
X5.71Y-16.055
X5.71Y-16.335
X5.715Y-10.46
X5.72Y-8.0
X5.725Y-5.975
X5.725Y-13.19
X5.74Y-13.4
X5.75Y-10.33
X5.76Y-9.62
X5.775Y-16.555
X5.795Y-6.025
X5.795Y-19.33
X5.83Y-1.36
X5.84Y-16.51
X5.842Y-4.782
X5.86Y-16.205
X5.865Y-19.275
X5.875Y-10.3
X5.89Y-13.465
X5.91Y-16.54
X5.92Y-21.305
X5.925Y-5.95
X5.925Y-15.025
X5.94Y-2.745
X5.94Y-19.74
X5.95Y-9.8
X5.95Y-10.33
X5.975Y-12.27
X5.98Y-5.845
X5.99Y-1.36
X5.99Y-2.325
X5.995Y-17.945
X5.995Y-19.26
X6.0Y-9.675
X6.0Y-13.405
X6.015Y-13.17
X6.015Y-16.26
X6.02Y-12.07
X6.02Y-14.665
X6.025Y-13.515
X6.05Y-10.055
X6.065Y-16.485
X6.1Y-1.43
X6.105Y-8.795
X6.105Y-14.82
X6.12Y-7.55
X6.12Y-18.02
X6.135Y-2.365
X6.14Y-17.745
X6.14Y-18.625
X6.15Y-19.08
X6.15Y-19.33
X6.165Y-9.8
X6.17Y-12.72
X6.17Y-13.08
X6.175Y-18.76
X6.185Y-9.095
X6.195Y-14.46
X6.2Y-1.53
X6.2Y-12.13
X6.215Y-17.92
X6.22Y-14.19
X6.22Y-15.6
X6.225Y-13.19
X6.23Y-9.45
X6.265Y-16.81
X6.28Y-10.02
X6.3Y-1.625
X6.31Y-11.76
X6.32Y-18.06
X6.32Y-18.7
X6.3246Y-18.97
X6.345Y-17.06
X6.35Y-8.98
X6.36Y-9.95
X6.36Y-17.31
X6.37Y-15.85
X6.37Y-17.925
X6.375Y-19.1025
X6.385Y-8.045
X6.4Y-1.54
X6.4Y-1.98
X6.405Y-17.21
X6.41Y-9.875
X6.41Y-14.655
X6.425Y-12.22
X6.43Y-12.1293
X6.435Y-8.12
X6.44Y-18.07
X6.455Y-9.8
X6.48Y-13.64
X6.49Y-8.2
X6.5Y-1.54
X6.5Y-1.98
X6.51Y-8.55
X6.51Y-9.725
X6.55Y-10.585
X6.55Y-14.695
X6.555Y-10.25
X6.555Y-10.43
X6.56Y-8.095
X6.56Y-9.65
X6.56Y-13.11
X6.585Y-8.575
X6.6Y-17.675
X6.61Y-1.54
X6.61Y-1.98
X6.61Y-11.775
X6.62Y-13.635
X6.625Y-10.3
X6.635Y-10.63
X6.675Y-15.225
X6.695Y-10.71
X6.7Y-17.62
X6.705Y-11.85
X6.705Y-11.96
X6.705Y-14.945
X6.72Y-18.205
X6.73Y-10.355
X6.73Y-10.555
X6.73Y-11.715
X6.755Y-5.435
X6.755Y-13.41
X6.78Y-17.82
X6.78Y-19.56
X6.8Y-1.482
X6.801Y-1.387
X6.805Y-16.615
X6.81Y-18.155
X6.82Y-5.555
X6.83Y-10.585
X6.84Y-13.415
X6.86Y-9.62
X6.86Y-10.075
X6.865Y-8.045
X6.865Y-17.01
X6.875Y-18.2
X6.885Y-5.485
X6.885Y-8.17
X6.92Y-8.245
X6.93Y-13.44
X6.93Y-16.91
X6.93Y-19.11
X6.95Y-19.36
X6.955Y-9.2
X6.955Y-18.175
X6.98Y-11.455
X6.98Y-14.46
X6.985Y-10.715
X6.99Y-12.62
X6.995Y-8.32
X7.005Y-16.085
X7.005Y-16.93
X7.02Y-8.845
X7.04Y-8.575
X7.045Y-6.79
X7.045Y-8.25
X7.05Y-6.315
X7.055Y-11.78
X7.055Y-18.045
X7.075Y-15.655
X7.08Y-16.86
X7.08Y-17.16
X7.08Y-18.205
X7.085Y-2.575
X7.085Y-9.37
X7.085Y-13.91
X7.095Y-8.5
X7.11Y-18.825
X7.11Y-19.28
X7.12Y-8.245
X7.14Y-9.72
X7.145Y-13.185
X7.155Y-15.855
X7.16Y-14.74
X7.175Y-8.525
X7.175Y-13.54
X7.175Y-16.46
X7.18Y-10.275
X7.195Y-8.2
X7.23Y-7.64
X7.235Y-11.785
X7.24Y-9.72
X7.24Y-12.125
X7.25Y-8.55
X7.25Y-13.59
X7.255Y-15.175
X7.26Y-2.45
X7.28Y-8.22
X7.285Y-10.635
X7.31Y-16.43
X7.31Y-18.205
X7.34Y-2.035
X7.34Y-2.13
X7.34Y-2.225
X7.35Y-5.86
X7.36Y-14.87
X7.385Y-19.82
X7.4Y-5.935
X7.415Y-13.36
X7.435Y-10.51
X7.44Y-11.9
X7.46Y-14.85
X7.485Y-16.61
X7.485Y-19.99
X7.49Y-6.07
X7.49Y-6.19
X7.49Y-10.205
X7.49Y-14.695
X7.505Y-13.605
X7.52Y-7.65
X7.55Y-8.425
X7.585Y-14.695
X7.59Y-11.965
X7.605Y-8.01
X7.615Y-15.4
X7.64Y-18.555
X7.64Y-18.96
X7.645Y-14.39
X7.655Y-7.355
X7.69Y-9.62
X7.69Y-13.685
X7.695Y-19.105
X7.7Y-8.095
X7.725Y-10.96
X7.745Y-19.235
X7.75Y-7.365
X7.75Y-7.645
X7.75Y-11.41
X7.765Y-18.62
X7.78Y-8.065
X7.785Y-13.68
X7.8Y-9.45
X7.805Y-7.54
X7.83Y-17.31
X7.84Y-13.055
X7.84Y-19.81
X7.845Y-12.625
X7.845Y-14.34
X7.8459Y-12.3159
X7.88Y-8.04
X7.92Y-19.175
X7.9225Y-12.2475
X7.945Y-13.555
X7.945Y-14.85
X7.95Y-8.445
X7.95Y-18.83
X7.95Y-19.305
X7.975Y-11.21
X7.995Y-15.175
X8.005Y-8.145
X8.04Y-16.51
X8.045Y-8.445
X8.05Y-13.63
X8.055Y-11.585
X8.075Y-12.145
X8.09Y-14.795
X8.1Y-9.775
X8.11Y-18.205
X8.125Y-10.0
X8.125Y-13.61
X8.15Y-11.815
X8.155Y-8.34
X8.165Y-15.17
X8.18Y-9.72
X8.195Y-16.535
X8.195Y-18.175
X8.205Y-8.475
X8.2179Y-15.1021
X8.23Y-10.325
X8.26Y-8.2904
X8.275Y-9.62
X8.275Y-10.4
X8.275Y-12.12
X8.275Y-16.475
X8.285Y-8.52
X8.3Y-16.05
X8.32Y-16.58
X8.32Y-18.275
X8.325Y-12.3
X8.325Y-13.36
X8.34Y-8.245
X8.345Y-14.995
X8.36Y-8.55
X8.395Y-15.175
X8.405Y-13.36
X8.415Y-8.215
X8.425Y-11.51
X8.425Y-15.4
X8.43Y-12.545
X8.43Y-19.81
X8.44Y-18.49
X8.45Y-17.545
X8.46Y-11.06
X8.465Y-17.08
X8.485Y-8.165
X8.495Y-18.05
X8.495Y-19.665
X8.5Y-10.605
X8.5Y-14.72
X8.5Y-17.26
X8.515Y-9.445
X8.53Y-13.19
X8.555Y-14.13
X8.57Y-16.33
X8.575Y-12.05
X8.575Y-14.84
X8.58Y-10.625
X8.585Y-13.915
X8.63Y-14.185
X8.635Y-15.55
X8.64Y-11.23
X8.66Y-13.84
X8.665Y-17.16
X8.68Y-13.985
X8.68Y-15.45
X8.6946Y-11.0146
X8.695Y-8.82
X8.71Y-11.84
X8.725Y-16.41
X8.74Y-8.09
X8.755Y-12.925
X8.765Y-9.05
X8.775Y-2.775
X8.78Y-18.87
X8.805Y-10.655
X8.82Y-8.07
X8.86Y-16.46
X8.88Y-8.435
X8.885Y-10.705
X8.905Y-12.305
X8.91Y-13.335
X8.91Y-16.61
X8.91Y-19.51
X8.915Y-16.335
X8.92Y-8.065
X8.94Y-11.715
X8.975Y-7.99
X8.98Y-20.99
X9.01Y-21.295
X9.02Y-1.34
X9.07Y-17.725
X9.07Y-17.88
X9.105Y-19.51
X9.11Y-15.12
X9.115Y-18.25
X9.1171Y-8.3171
X9.135Y-12.275
X9.135Y-16.28
X9.185Y-16.355
X9.19Y-20.82
X9.2Y-4.97
X9.205Y-21.295
X9.21Y-13.41
X9.21Y-14.87
X9.225Y-8.195
X9.242Y-13.126
X9.245Y-17.67
X9.26Y-14.95
X9.26Y-20.99
X9.265Y-17.01
X9.29Y-12.775
X9.295Y-8.145
X9.34Y-19.33
X9.34Y-19.92
X9.365Y-14.975
X9.37Y-9.67
X9.37Y-11.56
X9.385Y-8.26
X9.385Y-16.92
X9.39Y-8.95
X9.39Y-18.705
X9.41Y-15.7
X9.41Y-16.285
X9.41Y-16.485
X9.415Y-12.725
X9.416Y-13.024
X9.435Y-19.56
X9.44Y-10.145
X9.45Y-8.57
X9.45Y-19.64
X9.47Y-6.88
X9.475Y-6.535
X9.475Y-15.45
X9.485Y-17.02
X9.5Y-18.52
X9.51Y-19.75
X9.515Y-12.305
X9.515Y-15.12
X9.53Y-18.2
X9.535Y-16.945
X9.545Y-1.355
X9.55Y-12.52
X9.615Y-10.65
X9.615Y-19.79
X9.628Y-5.172
X9.67Y-11.82
X9.705Y-17.47
X9.715Y-19.79
X9.77Y-10.205
X9.77Y-13.585
X9.775Y-4.875
X9.825Y-14.77
X9.865Y-6.435
X9.865Y-10.705
X9.875Y-6.635
X9.88Y-6.875
X9.895Y-14.87
X9.975Y-12.245
X9.98Y-5.045
X9.99Y-3.525
X9.995Y-10.49
X10.0Y-15.8
X10.025Y-14.11
X10.06Y-12.3
X10.075Y-20.59
X10.075Y-20.995
X10.1Y-20.19
X10.11Y-8.085
X10.125Y-11.815
X10.13Y-14.19
X10.136Y-12.464
X10.15Y-14.005
X10.185Y-6.505
X10.22Y-11.995
X10.225Y-9.49
X10.23Y-20.335
X10.305Y-20.265
X10.33Y-8.425
X10.33Y-20.89
X10.35Y-20.59
X10.36Y-12.525
X10.4Y-9.85
X10.415Y-8.37
X10.44Y-8.57
X10.48Y-9.895
X10.49Y-8.32
X10.53Y-9.97
X10.54Y-14.385
X10.565Y-8.27
X10.585Y-10.035
X10.61Y-13.63
X10.64Y-8.22
X10.655Y-9.64
X10.685Y-13.355
X10.715Y-8.17
X10.74Y-6.865
X10.755Y-10.63
X10.76Y-12.17
X10.795Y-8.115
X10.81Y-13.63
X10.835Y-11.105
X10.835Y-12.095
X10.845Y-8.035
X10.845Y-9.35
X10.91Y-13.835
X10.94Y-5.01
X10.945Y-8.015
X10.99Y-10.47
X10.992Y-12.622
X11.0Y-3.738
X11.01Y-19.82
X11.04Y-20.94
X11.065Y-11.79
X11.074Y-3.566
X11.09Y-13.355
X11.093Y-7.905
X11.095Y-5.115
X11.115Y-11.865
X11.115Y-13.28
X11.13Y-9.74
X11.14Y-19.76
X11.165Y-19.94
X11.19Y-12.045
X11.215Y-13.415
X11.235Y-9.74
X11.24Y-8.5
X11.27Y-19.81
X11.29Y-8.015
X11.34Y-9.945
X11.345Y-6.425
X11.35Y-19.935
X11.375Y-8.06
X11.4Y-9.64
X11.415Y-10.045
X11.415Y-11.685
X11.445Y-8.015
X11.495Y-10.68
X11.5Y-13.63
X11.53Y-8.14
X11.55Y-17.76
X11.58Y-18.6
X11.59Y-16.3
X11.595Y-11.92
X11.595Y-13.685
X11.595Y-19.865
X11.6Y-3.58
X11.6Y-8.195
X11.62Y-18.52
X11.625Y-11.435
X11.625Y-14.03
X11.63Y-3.39
X11.649Y-12.524
X11.65Y-13.33
X11.675Y-8.265
X11.745Y-15.085
X11.75Y-8.31
X11.77Y-10.17
X11.81Y-10.655
X11.825Y-8.36
X11.85Y-8.065
X11.89Y-10.505
X11.915Y-10.045
X11.96Y-8.57
X11.96Y-16.245
X11.975Y-7.905
X11.975Y-13.56
X12.01Y-13.635
X12.02Y-9.945
X12.025Y-10.575
X12.075Y-17.96
X12.08Y-21.29
X12.205Y-8.065
X12.205Y-17.96
X12.205Y-21.29
X12.23Y-10.45
X12.28Y-16.41
X12.31Y-3.115
X12.32Y-17.96
X12.325Y-7.705
X12.33Y-8.8
X12.33Y-21.29
X12.335Y-5.125
X12.335Y-9.64
X12.3376Y-12.724
X12.395Y-18.08
X12.395Y-18.19
X12.395Y-18.28
X12.395Y-18.38
X12.395Y-18.48
X12.395Y-18.58
X12.395Y-18.68
X12.395Y-18.78
X12.395Y-18.88
X12.395Y-18.98
X12.395Y-19.08
X12.395Y-19.18
X12.395Y-19.28
X12.395Y-19.38
X12.395Y-19.48
X12.4Y-7.75
X12.41Y-17.43
X12.41Y-17.53
X12.41Y-17.63
X12.41Y-19.63
X12.41Y-19.73
X12.41Y-19.83
T3
X1.64Y-16.55
X1.64Y-17.0
X1.66Y-13.74
X1.66Y-14.19
X1.66Y-15.25
X1.66Y-15.7
X1.665Y-18.33
X1.665Y-18.78
X1.67Y-10.76
X1.67Y-11.21
X1.67Y-12.385
X1.67Y-12.835
X1.67Y-20.01
X1.67Y-20.46
X1.68Y-8.655
X1.68Y-9.105
X1.68Y-9.205
X1.68Y-9.655
X1.69Y-6.41
X1.69Y-6.86
X1.77Y-3.035
X1.775Y-3.74
X1.775Y-4.44
X1.8Y-2.2
X1.8Y-9.205
X1.8Y-9.655
X1.82Y-10.76
X1.82Y-10.86
X1.82Y-10.96
X1.82Y-11.06
X1.82Y-11.16
X1.82Y-11.26
X1.82Y-11.36
X1.82Y-11.46
X1.82Y-11.56
X1.82Y-11.66
X1.82Y-11.76
X1.82Y-11.86
X1.82Y-12.475
X1.82Y-12.575
X1.82Y-12.675
X1.82Y-12.775
X1.82Y-12.875
X1.82Y-12.975
X1.82Y-13.075
X1.82Y-13.175
X1.82Y-15.35
X1.82Y-15.45
X1.82Y-15.55
X1.82Y-15.65
X1.82Y-15.75
X1.82Y-15.85
X1.82Y-15.95
X1.82Y-16.76
X1.82Y-16.86
X1.82Y-16.96
X1.82Y-17.06
X1.82Y-17.16
X1.82Y-17.26
X1.82Y-17.36
X1.82Y-17.46
X1.82Y-18.42
X1.82Y-18.52
X1.82Y-18.62
X1.82Y-18.72
X1.82Y-18.82
X1.82Y-18.92
X1.82Y-19.02
X1.82Y-19.12
X1.825Y-20.14
X1.825Y-20.24
X1.825Y-20.34
X1.825Y-20.44
X1.825Y-20.54
X1.825Y-20.64
X1.825Y-20.74
X1.825Y-20.84
X1.83Y-8.75
X1.83Y-8.85
X1.83Y-8.95
X1.83Y-9.05
X1.84Y-6.49
X1.84Y-6.59
X1.84Y-6.69
X1.84Y-6.79
X1.84Y-6.89
X1.84Y-6.99
X1.84Y-7.09
X1.84Y-7.19
X1.84Y-7.29
X1.84Y-7.39
X1.85Y-13.88
X1.93Y-9.205
X1.93Y-9.655
X1.95Y-14.53
X2.05Y-13.88
X2.06Y-9.205
X2.06Y-9.655
X2.105Y-9.905
X2.105Y-10.355
X2.12Y-12.475
X2.12Y-12.575
X2.12Y-12.675
X2.12Y-12.775
X2.12Y-12.875
X2.12Y-12.975
X2.12Y-13.075
X2.12Y-13.175
X2.12Y-15.35
X2.12Y-15.45
X2.12Y-15.55
X2.12Y-15.65
X2.12Y-15.75
X2.12Y-15.85
X2.12Y-15.95
X2.12Y-16.76
X2.12Y-16.86
X2.12Y-16.96
X2.12Y-17.06
X2.12Y-17.16
X2.12Y-17.26
X2.12Y-17.36
X2.12Y-17.46
X2.12Y-18.42
X2.12Y-18.52
X2.12Y-18.62
X2.12Y-18.72
X2.12Y-18.82
X2.12Y-18.92
X2.12Y-19.02
X2.12Y-19.12
X2.125Y-20.14
X2.125Y-20.24
X2.125Y-20.34
X2.125Y-20.44
X2.125Y-20.54
X2.125Y-20.64
X2.125Y-20.74
X2.125Y-20.84
X2.13Y-8.75
X2.13Y-8.85
X2.13Y-8.95
X2.13Y-9.05
X2.14Y-6.49
X2.14Y-6.59
X2.14Y-6.69
X2.14Y-6.79
X2.14Y-6.89
X2.14Y-6.99
X2.14Y-7.09
X2.14Y-7.19
X2.14Y-7.29
X2.14Y-7.39
X2.175Y-9.205
X2.175Y-9.655
X2.22Y-3.035
X2.225Y-3.74
X2.225Y-4.44
X2.23Y-9.905
X2.23Y-10.355
X2.25Y-2.2
X2.27Y-14.06
X2.27Y-14.51
X2.31Y-9.205
X2.31Y-9.655
X2.32Y-4.635
X2.32Y-12.47
X2.32Y-12.92
X2.325Y-4.76
X2.329Y-4.442
X2.33Y-3.035
X2.331Y-3.74
X2.355Y-9.905
X2.355Y-10.355
X2.39Y-13.99
X2.39Y-14.44
X2.42Y-10.76
X2.42Y-10.86
X2.42Y-10.96
X2.42Y-11.06
X2.42Y-11.16
X2.42Y-11.26
X2.42Y-11.36
X2.42Y-11.46
X2.42Y-11.56
X2.42Y-11.66
X2.42Y-11.76
X2.42Y-11.86
X2.435Y-9.205
X2.435Y-9.655
X2.49Y-9.905
X2.49Y-10.355
X2.525Y-13.99
X2.525Y-14.44
X2.555Y-4.99
X2.555Y-5.09
X2.555Y-5.19
X2.555Y-5.29
X2.58Y-12.475
X2.58Y-12.575
X2.58Y-12.675
X2.58Y-12.775
X2.58Y-12.875
X2.58Y-12.975
X2.58Y-13.075
X2.58Y-13.175
X2.58Y-15.35
X2.58Y-15.45
X2.58Y-15.55
X2.58Y-15.65
X2.58Y-15.75
X2.58Y-15.85
X2.58Y-15.95
X2.58Y-16.05
X2.58Y-16.76
X2.58Y-16.86
X2.58Y-16.96
X2.58Y-17.06
X2.58Y-17.16
X2.58Y-17.26
X2.58Y-17.36
X2.58Y-17.46
X2.58Y-18.42
X2.58Y-18.52
X2.58Y-18.62
X2.58Y-18.72
X2.58Y-18.82
X2.58Y-18.92
X2.58Y-19.02
X2.58Y-19.12
X2.59Y-8.75
X2.59Y-8.85
X2.59Y-8.95
X2.59Y-9.05
X2.59Y-9.15
X2.59Y-9.25
X2.59Y-9.35
X2.59Y-9.45
X2.59Y-9.55
X2.59Y-9.65
X2.6Y-6.49
X2.6Y-6.59
X2.6Y-6.69
X2.6Y-6.79
X2.6Y-6.89
X2.6Y-6.99
X2.6Y-7.09
X2.6Y-7.19
X2.62Y-9.905
X2.62Y-10.355
X2.645Y-3.995
X2.645Y-4.095
X2.645Y-4.195
X2.655Y-2.585
X2.655Y-2.685
X2.655Y-2.785
X2.655Y-3.29
X2.655Y-3.39
X2.655Y-3.49
X2.68Y-13.88
X2.68Y-14.48
X2.738Y-9.904
X2.738Y-10.354
X2.7525Y-2.045
X2.77Y-4.635
X2.775Y-4.76
X2.779Y-4.442
X2.78Y-3.035
X2.781Y-3.74
X2.855Y-4.99
X2.855Y-5.09
X2.855Y-5.19
X2.855Y-5.29
X2.865Y-9.905
X2.865Y-10.355
X2.875Y-14.4438
X2.88Y-10.76
X2.88Y-10.86
X2.88Y-10.96
X2.88Y-11.06
X2.88Y-11.16
X2.88Y-11.26
X2.88Y-11.36
X2.88Y-11.46
X2.88Y-11.56
X2.88Y-11.66
X2.88Y-11.76
X2.88Y-11.86
X2.88Y-12.475
X2.88Y-12.575
X2.88Y-12.675
X2.88Y-12.775
X2.88Y-12.875
X2.88Y-12.975
X2.88Y-13.075
X2.88Y-13.175
X2.88Y-13.88
X2.88Y-14.13
X2.88Y-15.35
X2.88Y-15.45
X2.88Y-15.55
X2.88Y-15.65
X2.88Y-15.75
X2.88Y-15.85
X2.88Y-15.95
X2.88Y-16.05
X2.88Y-16.76
X2.88Y-16.86
X2.88Y-16.96
X2.88Y-17.06
X2.88Y-17.16
X2.88Y-17.26
X2.88Y-17.36
X2.88Y-17.46
X2.88Y-18.42
X2.88Y-18.52
X2.88Y-18.62
X2.88Y-18.72
X2.88Y-18.82
X2.88Y-18.92
X2.88Y-19.02
X2.88Y-19.12
X2.89Y-8.75
X2.89Y-8.85
X2.89Y-8.95
X2.89Y-9.05
X2.89Y-9.15
X2.89Y-9.25
X2.89Y-9.35
X2.89Y-9.45
X2.89Y-9.55
X2.89Y-9.65
X2.9Y-6.49
X2.9Y-6.59
X2.9Y-6.69
X2.9Y-6.79
X2.9Y-6.89
X2.9Y-6.99
X2.9Y-7.09
X2.9Y-7.19
X2.94Y-20.14
X2.94Y-20.24
X2.94Y-20.34
X2.94Y-20.44
X2.94Y-20.54
X2.94Y-20.64
X2.94Y-20.74
X2.94Y-20.84
X2.94Y-20.94
X2.94Y-21.04
X2.94Y-21.14
X2.94Y-21.24
X2.975Y-14.3438
X2.992Y-9.906
X2.992Y-10.356
X2.995Y-3.14
X2.995Y-3.26
X2.995Y-3.385
X2.995Y-3.505
X2.995Y-3.635
X2.995Y-3.755
X2.995Y-3.885
X2.995Y-4.015
X2.995Y-4.135
X2.995Y-4.265
X2.995Y-4.39
X2.995Y-4.515
X2.995Y-4.635
X2.995Y-4.76
X2.995Y-5.255
X2.995Y-5.39
X2.995Y-5.52
X2.996Y-4.878
X2.996Y-5.014
X2.996Y-5.138
X3.075Y-14.4438
X3.08Y-13.88
X3.08Y-14.13
X3.29Y-18.45
X3.29Y-18.575
X3.29Y-18.7
X3.29Y-18.825
X3.29Y-18.95
X3.29Y-19.075
X3.29Y-19.2
X3.29Y-19.325
X3.29Y-19.45
X3.385Y-15.35
X3.385Y-15.45
X3.385Y-15.55
X3.385Y-15.65
X3.385Y-15.75
X3.385Y-15.85
X3.385Y-15.95
X3.385Y-16.05
X3.39Y-12.475
X3.39Y-12.575
X3.39Y-12.675
X3.39Y-12.775
X3.39Y-12.875
X3.39Y-12.975
X3.39Y-13.075
X3.39Y-13.175
X3.39Y-13.84
X3.39Y-13.94
X3.39Y-14.04
X3.39Y-14.14
X3.39Y-14.24
X3.39Y-14.34
X3.39Y-14.44
X3.39Y-16.76
X3.39Y-16.86
X3.39Y-16.96
X3.39Y-17.06
X3.39Y-17.16
X3.39Y-17.26
X3.39Y-17.36
X3.39Y-17.46
X3.4Y-8.75
X3.4Y-8.85
X3.4Y-8.95
X3.4Y-9.05
X3.4Y-9.15
X3.4Y-9.25
X3.4Y-9.35
X3.4Y-9.45
X3.41Y-6.49
X3.41Y-6.59
X3.41Y-6.69
X3.41Y-6.79
X3.41Y-6.89
X3.41Y-6.99
X3.41Y-7.09
X3.41Y-7.19
X3.41Y-7.29
X3.41Y-7.39
X3.445Y-3.14
X3.445Y-3.26
X3.445Y-3.385
X3.445Y-3.505
X3.445Y-3.635
X3.445Y-3.755
X3.445Y-3.885
X3.445Y-4.015
X3.445Y-4.135
X3.445Y-4.265
X3.445Y-4.39
X3.445Y-4.515
X3.445Y-4.635
X3.445Y-4.76
X3.445Y-5.255
X3.445Y-5.39
X3.445Y-5.52
X3.446Y-4.878
X3.446Y-5.014
X3.446Y-5.138
X3.48Y-10.76
X3.48Y-10.86
X3.48Y-10.96
X3.48Y-11.06
X3.48Y-11.16
X3.48Y-11.26
X3.48Y-11.36
X3.48Y-11.46
X3.48Y-11.56
X3.48Y-11.66
X3.48Y-11.76
X3.48Y-11.86
X3.54Y-20.14
X3.54Y-20.24
X3.54Y-20.34
X3.54Y-20.44
X3.54Y-20.54
X3.54Y-20.64
X3.54Y-20.74
X3.54Y-20.84
X3.54Y-20.94
X3.54Y-21.04
X3.54Y-21.14
X3.54Y-21.24
X3.65Y-10.76
X3.65Y-11.21
X3.685Y-15.35
X3.685Y-15.45
X3.685Y-15.55
X3.685Y-15.65
X3.685Y-15.75
X3.685Y-15.85
X3.685Y-15.95
X3.685Y-16.05
X3.69Y-12.475
X3.69Y-12.575
X3.69Y-12.675
X3.69Y-12.775
X3.69Y-12.875
X3.69Y-12.975
X3.69Y-13.075
X3.69Y-13.175
X3.69Y-13.84
X3.69Y-13.94
X3.69Y-14.04
X3.69Y-14.14
X3.69Y-14.24
X3.69Y-14.34
X3.69Y-14.44
X3.69Y-16.76
X3.69Y-16.86
X3.69Y-16.96
X3.69Y-17.06
X3.69Y-17.16
X3.69Y-17.26
X3.69Y-17.36
X3.69Y-17.46
X3.7Y-8.75
X3.7Y-8.85
X3.7Y-8.95
X3.7Y-9.05
X3.7Y-9.15
X3.7Y-9.25
X3.7Y-9.35
X3.7Y-9.45
X3.71Y-6.49
X3.71Y-6.59
X3.71Y-6.69
X3.71Y-6.79
X3.71Y-6.89
X3.71Y-6.99
X3.71Y-7.09
X3.71Y-7.19
X3.71Y-7.29
X3.71Y-7.39
X3.74Y-18.45
X3.74Y-18.575
X3.74Y-18.7
X3.74Y-18.825
X3.74Y-18.95
X3.74Y-19.075
X3.74Y-19.2
X3.74Y-19.325
X3.74Y-19.45
X3.74Y-20.14
X3.74Y-20.59
X3.76Y-3.14
X3.76Y-3.255
X3.76Y-3.385
X3.76Y-3.64
X3.76Y-3.765
X3.76Y-3.885
X3.76Y-4.01
X3.76Y-4.14
X3.76Y-4.265
X3.76Y-4.385
X3.76Y-4.51
X3.76Y-4.636
X3.76Y-4.752
X3.76Y-4.882
X3.76Y-5.132
X3.76Y-5.26
X3.76Y-5.39
X3.76Y-5.515
X3.8Y-10.76
X3.8Y-10.86
X3.8Y-10.96
X3.8Y-11.06
X3.8Y-11.16
X3.8Y-11.26
X3.8Y-11.36
X3.8Y-11.46
X3.8Y-11.56
X3.8Y-11.66
X3.8Y-11.76
X3.8Y-11.86
X3.8275Y-2.045
X3.845Y-12.475
X3.845Y-12.925
X3.94Y-18.45
X3.94Y-18.9
X4.0Y-20.14
X4.0Y-20.24
X4.0Y-20.34
X4.0Y-20.44
X4.0Y-20.54
X4.0Y-20.64
X4.0Y-20.74
X4.0Y-20.84
X4.0Y-20.94
X4.0Y-21.04
X4.0Y-21.14
X4.0Y-21.24
X4.15Y-18.425
X4.15Y-18.525
X4.15Y-18.625
X4.15Y-18.725
X4.15Y-18.825
X4.15Y-18.925
X4.15Y-19.025
X4.15Y-19.125
X4.15Y-19.225
X4.15Y-19.325
X4.15Y-19.425
X4.195Y-13.84
X4.195Y-13.94
X4.195Y-14.04
X4.195Y-14.14
X4.195Y-14.24
X4.195Y-14.34
X4.195Y-14.44
X4.2Y-12.475
X4.2Y-12.575
X4.2Y-12.675
X4.2Y-12.775
X4.2Y-12.875
X4.2Y-12.975
X4.2Y-13.075
X4.2Y-13.175
X4.2Y-15.35
X4.2Y-15.45
X4.2Y-15.55
X4.2Y-15.65
X4.2Y-15.75
X4.2Y-15.85
X4.2Y-15.95
X4.2Y-16.76
X4.2Y-16.86
X4.2Y-16.96
X4.2Y-17.06
X4.2Y-17.16
X4.2Y-17.26
X4.2Y-17.36
X4.21Y-3.14
X4.21Y-3.255
X4.21Y-3.385
X4.21Y-3.64
X4.21Y-3.765
X4.21Y-3.885
X4.21Y-4.01
X4.21Y-4.14
X4.21Y-4.265
X4.21Y-4.385
X4.21Y-4.51
X4.21Y-4.636
X4.21Y-4.752
X4.21Y-4.882
X4.21Y-5.132
X4.21Y-5.26
X4.21Y-5.39
X4.21Y-5.515
X4.21Y-8.75
X4.21Y-8.85
X4.21Y-8.95
X4.21Y-9.05
X4.21Y-9.15
X4.21Y-9.25
X4.21Y-9.35
X4.21Y-9.45
X4.22Y-6.49
X4.22Y-6.59
X4.22Y-6.69
X4.22Y-6.79
X4.22Y-6.89
X4.22Y-6.99
X4.22Y-7.09
X4.22Y-7.19
X4.22Y-7.29
X4.22Y-7.39
X4.4Y-10.76
X4.4Y-10.86
X4.4Y-10.96
X4.4Y-11.06
X4.4Y-11.16
X4.4Y-11.26
X4.4Y-11.36
X4.4Y-11.46
X4.4Y-11.56
X4.4Y-11.66
X4.4Y-11.76
X4.4Y-11.86
X4.495Y-13.84
X4.495Y-13.94
X4.495Y-14.04
X4.495Y-14.14
X4.495Y-14.24
X4.495Y-14.34
X4.495Y-14.44
X4.5Y-12.475
X4.5Y-12.575
X4.5Y-12.675
X4.5Y-12.775
X4.5Y-12.875
X4.5Y-12.975
X4.5Y-13.075
X4.5Y-13.175
X4.5Y-15.35
X4.5Y-15.45
X4.5Y-15.55
X4.5Y-15.65
X4.5Y-15.75
X4.5Y-15.85
X4.5Y-15.95
X4.5Y-16.76
X4.5Y-16.86
X4.5Y-16.96
X4.5Y-17.06
X4.5Y-17.16
X4.5Y-17.26
X4.5Y-17.36
X4.508Y-3.886
X4.509Y-4.014
X4.51Y-3.125
X4.51Y-3.25
X4.51Y-3.37
X4.51Y-3.5
X4.51Y-3.625
X4.51Y-3.75
X4.51Y-8.75
X4.51Y-8.85
X4.51Y-8.95
X4.51Y-9.05
X4.51Y-9.15
X4.51Y-9.25
X4.51Y-9.35
X4.51Y-9.45
X4.511Y-4.264
X4.512Y-4.37
X4.514Y-4.138
X4.514Y-4.994
X4.514Y-5.248
X4.516Y-4.505
X4.516Y-4.634
X4.516Y-4.75
X4.516Y-4.874
X4.516Y-5.37
X4.516Y-5.488
X4.52Y-6.49
X4.52Y-6.59
X4.52Y-6.69
X4.52Y-6.79
X4.52Y-6.89
X4.52Y-6.99
X4.52Y-7.09
X4.52Y-7.19
X4.52Y-7.29
X4.52Y-7.39
X4.52Y-16.155
X4.55Y-18.425
X4.55Y-18.525
X4.55Y-18.625
X4.55Y-18.725
X4.55Y-18.825
X4.55Y-18.925
X4.55Y-19.025
X4.55Y-19.125
X4.55Y-19.225
X4.55Y-19.325
X4.55Y-19.425
X4.6Y-20.14
X4.6Y-20.24
X4.6Y-20.34
X4.6Y-20.44
X4.6Y-20.54
X4.6Y-20.64
X4.6Y-20.74
X4.6Y-20.84
X4.6Y-20.94
X4.6Y-21.04
X4.6Y-21.14
X4.6Y-21.24
X4.66Y-16.76
X4.66Y-17.21
X4.68Y-19.01
X4.68Y-19.46
X4.71Y-8.75
X4.71Y-9.2
X4.72Y-6.5
X4.72Y-6.95
X4.72Y-10.76
X4.72Y-10.86
X4.72Y-10.96
X4.72Y-11.06
X4.72Y-11.16
X4.72Y-11.26
X4.72Y-11.36
X4.72Y-11.46
X4.72Y-11.56
X4.72Y-11.66
X4.72Y-11.76
X4.72Y-11.86
X4.855Y-18.45
X4.86Y-18.575
X4.86Y-18.705
X4.86Y-18.835
X4.86Y-18.955
X4.86Y-19.08
X4.86Y-19.21
X4.86Y-19.335
X4.86Y-19.46
X4.955Y-15.35
X4.955Y-15.45
X4.955Y-15.55
X4.955Y-15.65
X4.955Y-15.75
X4.955Y-15.85
X4.955Y-15.95
X4.958Y-3.886
X4.959Y-4.014
X4.96Y-3.125
X4.96Y-3.25
X4.96Y-3.37
X4.96Y-3.5
X4.96Y-3.625
X4.96Y-3.75
X4.96Y-12.475
X4.96Y-12.575
X4.96Y-12.675
X4.96Y-12.775
X4.96Y-12.875
X4.96Y-12.975
X4.96Y-13.075
X4.96Y-13.84
X4.96Y-13.94
X4.96Y-14.04
X4.96Y-14.14
X4.96Y-14.24
X4.96Y-14.34
X4.96Y-14.44
X4.96Y-16.76
X4.96Y-16.86
X4.96Y-16.96
X4.96Y-17.06
X4.96Y-17.16
X4.96Y-17.26
X4.96Y-17.36
X4.961Y-4.264
X4.962Y-4.37
X4.964Y-4.138
X4.964Y-4.994
X4.964Y-5.248
X4.966Y-4.505
X4.966Y-4.634
X4.966Y-4.75
X4.966Y-4.874
X4.966Y-5.37
X4.966Y-5.488
X4.97Y-8.75
X4.97Y-8.85
X4.97Y-8.95
X4.97Y-9.05
X4.97Y-9.15
X4.97Y-9.25
X4.97Y-9.35
X4.97Y-9.45
X4.97Y-16.155
X4.98Y-6.49
X4.98Y-6.59
X4.98Y-6.69
X4.98Y-6.79
X4.98Y-6.89
X4.98Y-6.99
X4.98Y-7.09
X4.98Y-7.19
X4.98Y-7.29
X4.98Y-7.39
X5.06Y-20.14
X5.06Y-20.24
X5.06Y-20.34
X5.06Y-20.44
X5.06Y-20.54
X5.06Y-20.64
X5.06Y-20.74
X5.06Y-20.84
X5.06Y-20.94
X5.06Y-21.04
X5.06Y-21.14
X5.06Y-21.24
X5.12Y-4.98
X5.12Y-5.08
X5.12Y-5.18
X5.12Y-5.28
X5.12Y-5.38
X5.12Y-5.48
X5.12Y-5.58
X5.124Y-3.516
X5.124Y-3.966
X5.135Y-2.93
X5.135Y-3.38
X5.138Y-4.122
X5.138Y-4.572
X5.2238Y-4.335
X5.235Y-3.17
X5.255Y-15.35
X5.255Y-15.45
X5.255Y-15.55
X5.255Y-15.65
X5.255Y-15.75
X5.255Y-15.85
X5.255Y-15.95
X5.26Y-12.475
X5.26Y-12.575
X5.26Y-12.675
X5.26Y-12.775
X5.26Y-12.875
X5.26Y-12.975
X5.26Y-13.075
X5.26Y-13.84
X5.26Y-13.94
X5.26Y-14.04
X5.26Y-14.14
X5.26Y-14.24
X5.26Y-14.34
X5.26Y-14.44
X5.26Y-16.76
X5.26Y-16.86
X5.26Y-16.96
X5.26Y-17.06
X5.26Y-17.16
X5.26Y-17.26
X5.26Y-17.36
X5.27Y-8.75
X5.27Y-8.85
X5.27Y-8.95
X5.27Y-9.05
X5.27Y-9.15
X5.27Y-9.25
X5.27Y-9.35
X5.27Y-9.45
X5.28Y-6.49
X5.28Y-6.59
X5.28Y-6.69
X5.28Y-6.79
X5.28Y-6.89
X5.28Y-6.99
X5.28Y-7.09
X5.28Y-7.19
X5.28Y-7.29
X5.28Y-7.39
X5.305Y-18.45
X5.31Y-18.575
X5.31Y-18.705
X5.31Y-18.835
X5.31Y-18.955
X5.31Y-19.08
X5.31Y-19.21
X5.31Y-19.335
X5.31Y-19.46
X5.32Y-10.76
X5.32Y-10.86
X5.32Y-10.96
X5.32Y-11.06
X5.32Y-11.16
X5.32Y-11.26
X5.32Y-11.36
X5.32Y-11.46
X5.32Y-11.56
X5.32Y-11.66
X5.32Y-11.76
X5.32Y-11.86
X5.3238Y-4.235
X5.3238Y-4.435
X5.335Y-3.07
X5.335Y-3.27
X5.335Y-3.63
X5.335Y-3.88
X5.42Y-4.98
X5.42Y-5.08
X5.42Y-5.18
X5.42Y-5.28
X5.42Y-5.38
X5.42Y-5.48
X5.42Y-5.58
X5.465Y-10.765
X5.465Y-11.215
X5.534Y-4.122
X5.534Y-4.572
X5.54Y-2.83
X5.54Y-3.28
X5.585Y-3.385
X5.585Y-3.985
X5.62Y-10.76
X5.62Y-10.86
X5.62Y-10.96
X5.62Y-11.06
X5.62Y-11.16
X5.62Y-11.26
X5.62Y-11.36
X5.62Y-11.46
X5.62Y-11.56
X5.62Y-11.66
X5.62Y-11.76
X5.62Y-11.86
X5.6388Y-4.335
X5.64Y-3.175
X5.66Y-20.14
X5.66Y-20.24
X5.66Y-20.34
X5.66Y-20.44
X5.66Y-20.54
X5.66Y-20.64
X5.66Y-20.74
X5.66Y-20.84
X5.66Y-20.94
X5.66Y-21.04
X5.66Y-21.14
X5.66Y-21.24
X5.72Y-4.98
X5.72Y-5.08
X5.72Y-5.18
X5.72Y-5.28
X5.72Y-5.38
X5.72Y-5.48
X5.72Y-5.58
X5.72Y-5.68
X5.72Y-8.75
X5.72Y-8.85
X5.72Y-8.95
X5.72Y-9.05
X5.72Y-9.15
X5.72Y-9.25
X5.72Y-9.35
X5.72Y-9.45
X5.72Y-13.84
X5.72Y-13.94
X5.72Y-14.04
X5.72Y-14.14
X5.72Y-14.24
X5.72Y-14.34
X5.72Y-14.44
X5.72Y-15.35
X5.72Y-15.45
X5.72Y-15.55
X5.72Y-15.65
X5.72Y-15.75
X5.72Y-15.85
X5.72Y-15.95
X5.72Y-16.76
X5.72Y-16.86
X5.72Y-16.96
X5.72Y-17.06
X5.72Y-17.16
X5.72Y-17.26
X5.72Y-17.36
X5.72Y-18.42
X5.72Y-18.52
X5.72Y-18.62
X5.72Y-18.72
X5.72Y-18.82
X5.72Y-18.92
X5.72Y-19.02
X5.72Y-19.12
X5.725Y-12.475
X5.725Y-12.575
X5.725Y-12.675
X5.725Y-12.775
X5.725Y-12.875
X5.725Y-12.975
X5.725Y-13.075
X5.73Y-6.49
X5.73Y-6.59
X5.73Y-6.69
X5.73Y-6.79
X5.73Y-6.89
X5.73Y-6.99
X5.73Y-7.09
X5.7388Y-4.235
X5.7388Y-4.435
X5.74Y-3.075
X5.74Y-3.275
X5.745Y-3.53
X5.745Y-3.98
X5.92Y-20.14
X5.92Y-20.59
X5.944Y-2.94
X5.944Y-3.39
X5.945Y-3.53
X5.945Y-3.98
X5.946Y-4.122
X5.946Y-4.572
X6.02Y-4.98
X6.02Y-5.08
X6.02Y-5.18
X6.02Y-5.28
X6.02Y-5.38
X6.02Y-5.48
X6.02Y-5.58
X6.02Y-5.68
X6.02Y-8.75
X6.02Y-8.85
X6.02Y-8.95
X6.02Y-9.05
X6.02Y-9.15
X6.02Y-9.25
X6.02Y-9.35
X6.02Y-9.45
X6.02Y-13.84
X6.02Y-13.94
X6.02Y-14.04
X6.02Y-14.14
X6.02Y-14.24
X6.02Y-14.34
X6.02Y-14.44
X6.02Y-15.35
X6.02Y-15.45
X6.02Y-15.55
X6.02Y-15.65
X6.02Y-15.75
X6.02Y-15.85
X6.02Y-15.95
X6.02Y-16.76
X6.02Y-16.86
X6.02Y-16.96
X6.02Y-17.06
X6.02Y-17.16
X6.02Y-17.26
X6.02Y-17.36
X6.02Y-18.42
X6.02Y-18.52
X6.02Y-18.62
X6.02Y-18.72
X6.02Y-18.82
X6.02Y-18.92
X6.02Y-19.02
X6.02Y-19.12
X6.025Y-12.475
X6.025Y-12.575
X6.025Y-12.675
X6.025Y-12.775
X6.025Y-12.875
X6.025Y-12.975
X6.025Y-13.075
X6.03Y-6.49
X6.03Y-6.59
X6.03Y-6.69
X6.03Y-6.79
X6.03Y-6.89
X6.03Y-6.99
X6.03Y-7.09
X6.04Y-3.175
X6.04Y-4.335
X6.14Y-3.075
X6.14Y-3.275
X6.14Y-4.235
X6.14Y-4.435
X6.16Y-5.18
X6.16Y-5.63
X6.18Y-20.14
X6.18Y-20.24
X6.18Y-20.34
X6.18Y-20.44
X6.18Y-20.54
X6.18Y-20.64
X6.18Y-20.74
X6.18Y-20.84
X6.18Y-20.94
X6.18Y-21.04
X6.18Y-21.14
X6.18Y-21.24
X6.19Y-6.39
X6.19Y-6.84
X6.2Y-13.83
X6.2Y-14.28
X6.22Y-10.76
X6.22Y-10.86
X6.22Y-10.96
X6.22Y-11.06
X6.22Y-11.16
X6.22Y-11.26
X6.22Y-11.36
X6.22Y-11.46
X6.22Y-11.56
X6.22Y-11.66
X6.22Y-11.76
X6.22Y-11.86
X6.225Y-12.47
X6.225Y-12.92
X6.24Y-8.75
X6.24Y-9.2
X6.245Y-2.33
X6.26Y-2.825
X6.34Y-6.04
X6.34Y-6.14
X6.34Y-6.24
X6.34Y-6.34
X6.34Y-6.44
X6.34Y-6.54
X6.34Y-6.64
X6.34Y-6.74
X6.34Y-6.84
X6.34Y-6.94
X6.34Y-7.04
X6.34Y-7.14
X6.34Y-7.24
X6.34Y-7.34
X6.34Y-7.44
X6.34Y-7.54
X6.34Y-7.64
X6.34Y-7.74
X6.34Y-7.84
X6.34Y-7.94
X6.3775Y-4.58
X6.475Y-15.35
X6.475Y-15.45
X6.475Y-15.55
X6.475Y-15.65
X6.475Y-15.75
X6.475Y-15.85
X6.475Y-15.95
X6.475Y-16.05
X6.48Y-10.86
X6.48Y-10.96
X6.48Y-11.06
X6.48Y-11.16
X6.48Y-11.26
X6.48Y-11.36
X6.48Y-11.46
X6.48Y-11.56
X6.48Y-13.84
X6.48Y-13.94
X6.48Y-14.04
X6.48Y-14.14
X6.48Y-14.24
X6.48Y-14.34
X6.48Y-14.44
X6.48Y-16.76
X6.48Y-16.86
X6.48Y-16.96
X6.48Y-17.06
X6.48Y-17.16
X6.48Y-17.26
X6.48Y-17.36
X6.48Y-18.42
X6.48Y-18.52
X6.48Y-18.62
X6.48Y-18.72
X6.48Y-18.82
X6.48Y-18.92
X6.48Y-19.02
X6.48Y-19.12
X6.48Y-19.22
X6.48Y-19.32
X6.485Y-12.475
X6.485Y-12.575
X6.485Y-12.675
X6.485Y-12.775
X6.485Y-12.875
X6.485Y-12.975
X6.485Y-13.075
X6.49Y-8.75
X6.49Y-8.85
X6.49Y-8.95
X6.49Y-9.05
X6.49Y-9.15
X6.49Y-9.25
X6.49Y-9.35
X6.49Y-9.45
X6.775Y-15.35
X6.775Y-15.45
X6.775Y-15.55
X6.775Y-15.65
X6.775Y-15.75
X6.775Y-15.85
X6.775Y-15.95
X6.775Y-16.05
X6.78Y-10.86
X6.78Y-10.96
X6.78Y-11.06
X6.78Y-11.16
X6.78Y-11.26
X6.78Y-11.36
X6.78Y-11.46
X6.78Y-11.56
X6.78Y-13.84
X6.78Y-13.94
X6.78Y-14.04
X6.78Y-14.14
X6.78Y-14.24
X6.78Y-14.34
X6.78Y-14.44
X6.78Y-16.76
X6.78Y-16.86
X6.78Y-16.96
X6.78Y-17.06
X6.78Y-17.16
X6.78Y-17.26
X6.78Y-17.36
X6.78Y-18.42
X6.78Y-18.52
X6.78Y-18.62
X6.78Y-18.72
X6.78Y-18.82
X6.78Y-18.92
X6.78Y-19.02
X6.78Y-19.12
X6.78Y-19.22
X6.78Y-19.32
X6.78Y-20.14
X6.78Y-20.24
X6.78Y-20.34
X6.78Y-20.44
X6.78Y-20.54
X6.78Y-20.64
X6.78Y-20.74
X6.78Y-20.84
X6.78Y-20.94
X6.78Y-21.04
X6.78Y-21.14
X6.78Y-21.24
X6.785Y-12.475
X6.785Y-12.575
X6.785Y-12.675
X6.785Y-12.775
X6.785Y-12.875
X6.785Y-12.975
X6.785Y-13.075
X6.79Y-8.75
X6.79Y-8.85
X6.79Y-8.95
X6.79Y-9.05
X6.79Y-9.15
X6.79Y-9.25
X6.79Y-9.35
X6.79Y-9.45
X6.91Y-10.855
X6.91Y-11.305
X6.94Y-6.04
X6.94Y-6.14
X6.94Y-6.24
X6.94Y-6.34
X6.94Y-6.44
X6.94Y-6.54
X6.94Y-6.64
X6.94Y-6.74
X6.94Y-6.84
X6.94Y-6.94
X6.94Y-7.04
X6.94Y-7.14
X6.94Y-7.24
X6.94Y-7.34
X6.94Y-7.44
X6.94Y-7.54
X6.94Y-7.64
X6.94Y-7.74
X6.94Y-7.84
X6.94Y-7.94
X6.98Y-13.84
X6.98Y-14.29
X6.98Y-15.35
X6.98Y-15.8
X6.985Y-12.51
X6.985Y-12.96
X7.01Y-18.43
X7.01Y-18.88
X7.11Y-12.51
X7.11Y-12.96
X7.24Y-10.86
X7.24Y-10.96
X7.24Y-11.06
X7.24Y-11.16
X7.24Y-11.26
X7.24Y-11.36
X7.24Y-11.46
X7.24Y-11.56
X7.24Y-12.475
X7.24Y-12.575
X7.24Y-12.675
X7.24Y-12.775
X7.24Y-12.875
X7.24Y-12.975
X7.24Y-13.075
X7.24Y-13.175
X7.24Y-13.84
X7.24Y-13.94
X7.24Y-14.04
X7.24Y-14.14
X7.24Y-14.24
X7.24Y-14.34
X7.24Y-14.44
X7.24Y-15.35
X7.24Y-15.45
X7.24Y-15.55
X7.24Y-15.65
X7.24Y-15.75
X7.24Y-15.85
X7.24Y-15.95
X7.24Y-16.76
X7.24Y-16.86
X7.24Y-16.96
X7.24Y-17.06
X7.24Y-17.16
X7.24Y-17.26
X7.24Y-17.36
X7.24Y-18.42
X7.24Y-18.52
X7.24Y-18.62
X7.24Y-18.72
X7.24Y-18.82
X7.24Y-18.92
X7.24Y-19.02
X7.24Y-19.12
X7.24Y-19.22
X7.24Y-19.32
X7.25Y-8.75
X7.25Y-8.85
X7.25Y-8.95
X7.25Y-9.05
X7.25Y-9.15
X7.25Y-9.25
X7.25Y-9.35
X7.25Y-9.45
X7.25Y-20.14
X7.25Y-20.24
X7.25Y-20.34
X7.25Y-20.44
X7.25Y-20.54
X7.25Y-20.64
X7.25Y-20.74
X7.25Y-20.84
X7.25Y-20.94
X7.25Y-21.04
X7.25Y-21.14
X7.25Y-21.24
X7.2525Y-4.58
X7.29Y-4.93
X7.29Y-5.03
X7.29Y-5.13
X7.3Y-3.33
X7.3Y-3.43
X7.3Y-3.53
X7.32Y-2.33
X7.335Y-2.825
X7.385Y-17.815
X7.54Y-10.86
X7.54Y-10.96
X7.54Y-11.06
X7.54Y-11.16
X7.54Y-11.26
X7.54Y-11.36
X7.54Y-11.46
X7.54Y-11.56
X7.54Y-12.475
X7.54Y-12.575
X7.54Y-12.675
X7.54Y-12.775
X7.54Y-12.875
X7.54Y-12.975
X7.54Y-13.075
X7.54Y-13.175
X7.54Y-13.84
X7.54Y-13.94
X7.54Y-14.04
X7.54Y-14.14
X7.54Y-14.24
X7.54Y-14.34
X7.54Y-14.44
X7.54Y-15.35
X7.54Y-15.45
X7.54Y-15.55
X7.54Y-15.65
X7.54Y-15.75
X7.54Y-15.85
X7.54Y-15.95
X7.54Y-16.76
X7.54Y-16.86
X7.54Y-16.96
X7.54Y-17.06
X7.54Y-17.16
X7.54Y-17.26
X7.54Y-17.36
X7.54Y-18.42
X7.54Y-18.52
X7.54Y-18.62
X7.54Y-18.72
X7.54Y-18.82
X7.54Y-18.92
X7.54Y-19.02
X7.54Y-19.12
X7.54Y-19.22
X7.54Y-19.32
X7.55Y-8.75
X7.55Y-8.85
X7.55Y-8.95
X7.55Y-9.05
X7.55Y-9.15
X7.55Y-9.25
X7.55Y-9.35
X7.55Y-9.45
X7.58Y-4.4225
X7.58Y-5.2975
X7.585Y-2.625
X7.585Y-3.41
X7.585Y-3.5
X7.67Y-12.495
X7.67Y-12.945
X7.74Y-16.76
X7.74Y-17.21
X7.79Y-15.4
X7.79Y-15.85
X7.795Y-12.495
X7.795Y-12.945
X7.81Y-8.75
X7.81Y-9.2
X7.835Y-17.815
X7.85Y-20.14
X7.85Y-20.24
X7.85Y-20.34
X7.85Y-20.44
X7.85Y-20.54
X7.85Y-20.64
X7.85Y-20.74
X7.85Y-20.84
X7.85Y-20.94
X7.85Y-21.04
X7.85Y-21.14
X7.85Y-21.24
X7.86Y-6.43
X7.86Y-6.58
X7.86Y-6.68
X7.865Y-2.625
X7.865Y-3.075
X7.925Y-12.495
X7.925Y-12.945
X8.0Y-6.84
X8.0Y-6.94
X8.0Y-7.04
X8.0Y-7.14
X8.0Y-7.24
X8.0Y-7.34
X8.0Y-7.44
X8.0Y-7.54
X8.0Y-7.64
X8.0Y-7.74
X8.01Y-6.43
X8.04Y-12.475
X8.04Y-12.575
X8.04Y-12.675
X8.04Y-12.775
X8.04Y-12.875
X8.04Y-12.975
X8.04Y-13.075
X8.04Y-13.175
X8.05Y-8.75
X8.05Y-8.85
X8.05Y-8.95
X8.05Y-9.05
X8.05Y-9.15
X8.05Y-9.25
X8.05Y-9.35
X8.05Y-9.45
X8.05Y-10.86
X8.05Y-10.96
X8.05Y-11.06
X8.05Y-11.16
X8.05Y-11.26
X8.05Y-11.36
X8.05Y-11.46
X8.05Y-13.84
X8.05Y-13.94
X8.05Y-14.04
X8.05Y-14.14
X8.05Y-14.24
X8.05Y-14.34
X8.05Y-14.44
X8.05Y-15.35
X8.05Y-15.45
X8.05Y-15.55
X8.05Y-15.65
X8.05Y-15.75
X8.05Y-15.85
X8.05Y-15.95
X8.05Y-16.76
X8.05Y-16.86
X8.05Y-16.96
X8.05Y-17.06
X8.05Y-17.16
X8.05Y-17.26
X8.05Y-17.36
X8.05Y-18.42
X8.05Y-18.52
X8.05Y-18.62
X8.05Y-18.72
X8.05Y-18.82
X8.05Y-18.92
X8.05Y-19.02
X8.05Y-19.12
X8.05Y-19.22
X8.05Y-19.32
X8.065Y-3.595
X8.065Y-4.045
X8.07Y-20.14
X8.07Y-20.59
X8.09Y-4.815
X8.09Y-4.925
X8.09Y-5.035
X8.11Y-6.43
X8.185Y-5.18
X8.19Y-4.675
X8.21Y-4.4262
X8.21Y-5.43
X8.255Y-2.795
X8.255Y-3.245
X8.26Y-3.45
X8.26Y-3.9
X8.3Y-6.84
X8.3Y-6.94
X8.3Y-7.04
X8.3Y-7.14
X8.3Y-7.24
X8.3Y-7.34
X8.3Y-7.44
X8.3Y-7.54
X8.3Y-7.64
X8.3Y-7.74
X8.3Y-20.14
X8.3Y-20.24
X8.3Y-20.34
X8.3Y-20.44
X8.3Y-20.54
X8.3Y-20.64
X8.3Y-20.74
X8.3Y-20.84
X8.3Y-20.94
X8.3Y-21.04
X8.3Y-21.14
X8.3Y-21.24
X8.31Y-4.5262
X8.31Y-5.53
X8.31Y-6.58
X8.31Y-6.68
X8.34Y-12.475
X8.34Y-12.575
X8.34Y-12.675
X8.34Y-12.775
X8.34Y-12.875
X8.34Y-12.975
X8.34Y-13.075
X8.34Y-13.175
X8.35Y-8.75
X8.35Y-8.85
X8.35Y-8.95
X8.35Y-9.05
X8.35Y-9.15
X8.35Y-9.25
X8.35Y-9.35
X8.35Y-9.45
X8.35Y-10.86
X8.35Y-10.96
X8.35Y-11.06
X8.35Y-11.16
X8.35Y-11.26
X8.35Y-11.36
X8.35Y-11.46
X8.35Y-13.84
X8.35Y-13.94
X8.35Y-14.04
X8.35Y-14.14
X8.35Y-14.24
X8.35Y-14.34
X8.35Y-14.44
X8.35Y-15.35
X8.35Y-15.45
X8.35Y-15.55
X8.35Y-15.65
X8.35Y-15.75
X8.35Y-15.85
X8.35Y-15.95
X8.35Y-16.76
X8.35Y-16.86
X8.35Y-16.96
X8.35Y-17.06
X8.35Y-17.16
X8.35Y-17.26
X8.35Y-17.36
X8.35Y-18.42
X8.35Y-18.52
X8.35Y-18.62
X8.35Y-18.72
X8.35Y-18.82
X8.35Y-18.92
X8.35Y-19.02
X8.35Y-19.12
X8.35Y-19.22
X8.35Y-19.32
X8.365Y-2.795
X8.365Y-3.245
X8.365Y-3.45
X8.365Y-3.9
X8.41Y-4.4262
X8.41Y-5.43
X8.435Y-5.18
X8.44Y-4.675
X8.455Y-7.035
X8.455Y-7.485
X8.485Y-2.795
X8.485Y-3.245
X8.4875Y-3.45
X8.4875Y-3.9
X8.53Y-12.475
X8.53Y-12.925
X8.54Y-4.815
X8.54Y-4.925
X8.54Y-5.035
X8.564Y-7.036
X8.564Y-7.486
X8.615Y-5.205
X8.615Y-5.305
X8.615Y-5.4
X8.67Y-5.625
X8.67Y-6.075
X8.74Y-7.035
X8.74Y-7.485
X8.768Y-6.73
X8.77Y-6.834
X8.82Y-5.62
X8.82Y-5.72
X8.82Y-5.82
X8.82Y-5.92
X8.82Y-6.02
X8.82Y-6.12
X8.82Y-6.22
X8.82Y-6.32
X8.85Y-13.84
X8.85Y-13.94
X8.85Y-14.04
X8.85Y-14.14
X8.85Y-14.24
X8.85Y-14.34
X8.85Y-14.44
X8.85Y-14.54
X8.85Y-15.35
X8.85Y-15.45
X8.85Y-15.55
X8.85Y-15.65
X8.85Y-15.75
X8.85Y-15.85
X8.85Y-15.95
X8.85Y-16.05
X8.86Y-10.86
X8.86Y-10.96
X8.86Y-11.06
X8.86Y-11.16
X8.86Y-11.26
X8.86Y-11.36
X8.86Y-11.46
X8.86Y-12.475
X8.86Y-12.575
X8.86Y-12.675
X8.86Y-12.775
X8.86Y-12.875
X8.86Y-12.975
X8.86Y-13.075
X8.86Y-13.175
X8.86Y-16.76
X8.86Y-16.86
X8.86Y-16.96
X8.86Y-17.06
X8.86Y-17.16
X8.86Y-17.26
X8.86Y-17.36
X8.86Y-18.42
X8.86Y-18.52
X8.86Y-18.62
X8.86Y-18.72
X8.86Y-18.82
X8.86Y-18.92
X8.86Y-19.02
X8.86Y-19.12
X8.86Y-19.22
X8.86Y-19.32
X8.87Y-8.75
X8.87Y-8.85
X8.87Y-8.95
X8.87Y-9.05
X8.87Y-9.15
X8.87Y-9.25
X8.87Y-9.35
X8.87Y-9.45
X8.87Y-9.55
X8.87Y-9.65
X8.9Y-20.14
X8.9Y-20.24
X8.9Y-20.34
X8.9Y-20.44
X8.9Y-20.54
X8.9Y-20.64
X8.9Y-20.74
X8.9Y-20.84
X8.9Y-20.94
X8.9Y-21.04
X8.9Y-21.14
X8.9Y-21.24
X8.92Y-7.035
X8.92Y-7.135
X8.92Y-7.235
X8.92Y-7.335
X8.92Y-7.435
X8.92Y-7.535
X8.92Y-7.635
X8.92Y-7.735
X9.018Y-6.73
X9.02Y-2.615
X9.02Y-3.215
X9.02Y-3.365
X9.02Y-3.815
X9.065Y-5.205
X9.065Y-5.305
X9.065Y-5.4
X9.12Y-5.62
X9.12Y-5.72
X9.12Y-5.82
X9.12Y-5.92
X9.12Y-6.02
X9.12Y-6.12
X9.12Y-6.22
X9.12Y-6.32
X9.15Y-13.84
X9.15Y-13.94
X9.15Y-14.04
X9.15Y-14.14
X9.15Y-14.24
X9.15Y-14.34
X9.15Y-14.44
X9.15Y-14.54
X9.15Y-15.35
X9.15Y-15.45
X9.15Y-15.55
X9.15Y-15.65
X9.15Y-15.75
X9.15Y-15.85
X9.15Y-15.95
X9.15Y-16.05
X9.16Y-10.86
X9.16Y-10.96
X9.16Y-11.06
X9.16Y-11.16
X9.16Y-11.26
X9.16Y-11.36
X9.16Y-11.46
X9.16Y-12.475
X9.16Y-12.575
X9.16Y-12.675
X9.16Y-12.775
X9.16Y-12.875
X9.16Y-12.975
X9.16Y-13.075
X9.16Y-13.175
X9.16Y-16.76
X9.16Y-16.86
X9.16Y-16.96
X9.16Y-17.06
X9.16Y-17.16
X9.16Y-17.26
X9.16Y-17.36
X9.16Y-18.42
X9.16Y-18.52
X9.16Y-18.62
X9.16Y-18.72
X9.16Y-18.82
X9.16Y-18.92
X9.16Y-19.02
X9.16Y-19.12
X9.16Y-19.22
X9.16Y-19.32
X9.17Y-2.765
X9.17Y-3.215
X9.17Y-8.75
X9.17Y-8.85
X9.17Y-8.95
X9.17Y-9.05
X9.17Y-9.15
X9.17Y-9.25
X9.17Y-9.35
X9.17Y-9.45
X9.17Y-9.55
X9.17Y-9.65
X9.175Y-4.28
X9.175Y-4.73
X9.18Y-3.365
X9.18Y-3.815
X9.22Y-6.834
X9.22Y-7.035
X9.22Y-7.135
X9.22Y-7.235
X9.22Y-7.335
X9.22Y-7.435
X9.22Y-7.535
X9.22Y-7.635
X9.22Y-7.735
X9.27Y-5.635
X9.27Y-6.085
X9.29Y-16.81
X9.29Y-17.26
X9.32Y-2.62
X9.32Y-2.72
X9.32Y-2.82
X9.32Y-2.92
X9.32Y-4.12
X9.32Y-4.22
X9.32Y-4.32
X9.32Y-4.42
X9.32Y-6.225
X9.32Y-6.335
X9.33Y-2.32
X9.335Y-3.82
X9.335Y-15.35
X9.335Y-15.8
X9.34Y-17.96
X9.34Y-18.41
X9.37Y-6.834
X9.37Y-7.284
X9.37Y-10.86
X9.37Y-11.31
X9.371Y-7.455
X9.371Y-7.905
X9.375Y-20.14
X9.375Y-20.24
X9.375Y-20.34
X9.375Y-20.44
X9.375Y-20.54
X9.375Y-20.64
X9.375Y-20.74
X9.375Y-20.84
X9.375Y-20.94
X9.375Y-21.04
X9.375Y-21.14
X9.375Y-21.24
X9.38Y-13.85
X9.38Y-14.3
X9.385Y-14.41
X9.385Y-14.86
X9.41Y-16.81
X9.41Y-17.26
X9.48Y-2.47
X9.48Y-3.97
X9.48Y-5.63
X9.48Y-6.08
X9.49Y-7.05
X9.49Y-7.5
X9.49Y-13.85
X9.49Y-14.3
X9.495Y-14.41
X9.495Y-14.86
X9.53Y-5.48
X9.575Y-8.77
X9.575Y-8.9
X9.575Y-9.025
X9.575Y-9.15
X9.575Y-9.265
X9.575Y-9.395
X9.575Y-9.525
X9.575Y-9.65
X9.615Y-15.35
X9.615Y-15.45
X9.615Y-15.55
X9.615Y-15.65
X9.615Y-15.75
X9.615Y-15.85
X9.615Y-15.95
X9.615Y-16.05
X9.62Y-2.62
X9.62Y-2.72
X9.62Y-2.82
X9.62Y-2.92
X9.62Y-4.12
X9.62Y-4.22
X9.62Y-4.32
X9.62Y-4.42
X9.62Y-5.62
X9.62Y-5.72
X9.62Y-5.82
X9.62Y-5.92
X9.62Y-10.86
X9.62Y-10.96
X9.62Y-11.06
X9.62Y-11.16
X9.62Y-11.26
X9.62Y-11.36
X9.62Y-11.46
X9.62Y-11.56
X9.62Y-12.475
X9.62Y-12.575
X9.62Y-12.675
X9.62Y-12.775
X9.62Y-12.875
X9.62Y-12.975
X9.62Y-13.075
X9.62Y-13.175
X9.62Y-13.84
X9.62Y-13.94
X9.62Y-14.04
X9.62Y-14.14
X9.62Y-14.24
X9.62Y-14.34
X9.62Y-14.44
X9.62Y-14.64
X9.62Y-15.09
X9.62Y-18.42
X9.62Y-18.87
X9.63Y-2.32
X9.63Y-3.82
X9.63Y-6.832
X9.63Y-7.035
X9.63Y-7.485
X9.64Y-19.04
X9.64Y-19.64
X9.74Y-19.04
X9.74Y-19.64
X9.77Y-4.275
X9.77Y-4.725
X9.77Y-6.225
X9.77Y-6.335
X9.775Y-2.77
X9.775Y-3.22
X9.78Y-4.12
X9.78Y-7.04
X9.78Y-7.14
X9.78Y-7.24
X9.78Y-7.34
X9.78Y-7.44
X9.78Y-7.54
X9.78Y-7.64
X9.78Y-7.74
X9.79Y-2.265
X9.79Y-3.77
X9.791Y-2.62
X9.83Y-16.51
X9.83Y-16.61
X9.83Y-16.71
X9.83Y-16.81
X9.83Y-16.91
X9.83Y-17.01
X9.83Y-17.11
X9.83Y-17.21
X9.83Y-17.31
X9.83Y-17.41
X9.83Y-17.51
X9.83Y-17.61
X9.83Y-17.71
X9.83Y-17.81
X9.83Y-17.91
X9.83Y-18.01
X9.83Y-18.11
X9.83Y-18.21
X9.83Y-18.31
X9.83Y-18.41
X9.84Y-19.04
X9.84Y-19.64
X9.875Y-4.275
X9.875Y-4.725
X9.884Y-2.77
X9.884Y-3.22
X9.89Y-3.6
X9.89Y-3.975
X9.895Y-2.13
X9.895Y-2.465
X9.915Y-15.35
X9.915Y-15.45
X9.915Y-15.55
X9.915Y-15.65
X9.915Y-15.75
X9.915Y-15.85
X9.915Y-15.95
X9.915Y-16.05
X9.92Y-5.62
X9.92Y-5.72
X9.92Y-5.82
X9.92Y-5.92
X9.92Y-10.86
X9.92Y-10.96
X9.92Y-11.06
X9.92Y-11.16
X9.92Y-11.26
X9.92Y-11.36
X9.92Y-11.46
X9.92Y-11.56
X9.92Y-12.475
X9.92Y-12.575
X9.92Y-12.675
X9.92Y-12.775
X9.92Y-12.875
X9.92Y-12.975
X9.92Y-13.075
X9.92Y-13.175
X9.92Y-13.84
X9.92Y-13.94
X9.92Y-14.04
X9.92Y-14.14
X9.92Y-14.24
X9.92Y-14.34
X9.92Y-14.44
X9.94Y-19.04
X9.94Y-19.64
X9.975Y-20.14
X9.975Y-20.24
X9.975Y-20.34
X9.975Y-20.44
X9.975Y-20.54
X9.975Y-20.64
X9.975Y-20.74
X9.975Y-20.84
X9.975Y-20.94
X9.975Y-21.04
X9.975Y-21.14
X9.975Y-21.24
X9.976Y-6.626
X9.98Y-4.275
X9.98Y-4.725
X9.98Y-5.48
X9.992Y-2.77
X9.992Y-3.22
X10.025Y-8.77
X10.025Y-8.9
X10.025Y-9.025
X10.025Y-9.15
X10.025Y-9.265
X10.025Y-9.395
X10.025Y-9.525
X10.025Y-9.65
X10.04Y-19.04
X10.04Y-19.64
X10.05Y-13.86
X10.05Y-14.31
X10.05Y-14.42
X10.05Y-14.87
X10.08Y-6.832
X10.08Y-7.04
X10.08Y-7.14
X10.08Y-7.24
X10.08Y-7.34
X10.08Y-7.44
X10.08Y-7.54
X10.08Y-7.64
X10.08Y-7.74
X10.085Y-6.27
X10.125Y-15.325
X10.125Y-15.425
X10.125Y-15.525
X10.125Y-15.625
X10.125Y-15.725
X10.125Y-15.825
X10.125Y-15.93
X10.125Y-16.03
X10.14Y-3.6
X10.14Y-3.975
X10.14Y-19.04
X10.14Y-19.64
X10.145Y-2.13
X10.145Y-2.465
X10.15Y-5.505
X10.15Y-5.755
X10.155Y-13.86
X10.155Y-14.31
X10.155Y-14.42
X10.155Y-14.87
X10.18Y-4.275
X10.18Y-4.725
X10.185Y-2.77
X10.185Y-3.22
X10.2Y-20.135
X10.2Y-20.585
X10.22Y-6.775
X10.22Y-7.225
X10.225Y-8.74
X10.225Y-9.19
X10.23Y-4.12
X10.23Y-7.455
X10.23Y-7.905
X10.235Y-6.435
X10.24Y-2.265
X10.24Y-3.77
X10.24Y-19.04
X10.24Y-19.64
X10.241Y-2.62
X10.28Y-13.86
X10.28Y-14.46
X10.305Y-4.275
X10.305Y-4.725
X10.31Y-2.77
X10.31Y-3.22
X10.325Y-6.775
X10.325Y-7.225
X10.335Y-5.45
X10.335Y-5.9
X10.34Y-19.04
X10.34Y-19.64
X10.38Y-6.27
X10.385Y-3.528
X10.385Y-3.978
X10.394Y-2.014
X10.394Y-2.464
X10.426Y-6.626
X10.43Y-16.51
X10.43Y-16.61
X10.43Y-16.71
X10.43Y-16.81
X10.43Y-16.91
X10.43Y-17.01
X10.43Y-17.11
X10.43Y-17.21
X10.43Y-17.31
X10.43Y-17.41
X10.43Y-17.51
X10.43Y-17.61
X10.43Y-17.71
X10.43Y-17.81
X10.43Y-17.91
X10.43Y-18.01
X10.43Y-18.11
X10.43Y-18.21
X10.43Y-18.31
X10.43Y-18.41
X10.435Y-5.45
X10.435Y-5.9
X10.435Y-6.775
X10.435Y-7.225
X10.44Y-2.615
X10.44Y-2.715
X10.44Y-2.815
X10.44Y-2.915
X10.44Y-3.015
X10.44Y-3.115
X10.44Y-3.215
X10.44Y-4.12
X10.44Y-4.22
X10.44Y-4.32
X10.44Y-4.42
X10.44Y-4.52
X10.44Y-4.62
X10.44Y-4.72
X10.44Y-8.75
X10.44Y-8.85
X10.44Y-8.95
X10.44Y-9.05
X10.44Y-9.15
X10.44Y-9.25
X10.44Y-9.35
X10.44Y-9.45
X10.44Y-10.86
X10.44Y-10.96
X10.44Y-11.06
X10.44Y-11.16
X10.44Y-11.26
X10.44Y-11.36
X10.44Y-11.46
X10.44Y-11.56
X10.44Y-12.475
X10.44Y-12.575
X10.44Y-12.675
X10.44Y-12.775
X10.44Y-12.875
X10.44Y-12.975
X10.44Y-13.075
X10.44Y-13.175
X10.44Y-19.04
X10.44Y-19.64
X10.44Y-20.14
X10.44Y-20.24
X10.44Y-20.34
X10.44Y-20.44
X10.44Y-20.54
X10.44Y-20.64
X10.44Y-20.74
X10.44Y-20.84
X10.44Y-20.94
X10.44Y-21.04
X10.455Y-13.88
X10.455Y-14.08
X10.455Y-14.24
X10.455Y-14.44
X10.535Y-5.45
X10.535Y-5.9
X10.54Y-19.04
X10.54Y-19.64
X10.545Y-3.765
X10.55Y-2.32
X10.575Y-15.325
X10.575Y-15.425
X10.575Y-15.525
X10.575Y-15.625
X10.575Y-15.725
X10.575Y-15.825
X10.575Y-15.93
X10.575Y-16.03
X10.585Y-6.63
X10.595Y-6.27
X10.635Y-5.45
X10.635Y-5.9
X10.635Y-13.86
X10.635Y-14.46
X10.636Y-6.822
X10.64Y-7.04
X10.64Y-7.14
X10.64Y-7.24
X10.64Y-7.34
X10.64Y-7.44
X10.64Y-7.54
X10.64Y-7.64
X10.64Y-7.74
X10.64Y-19.04
X10.64Y-19.64
X10.685Y-15.325
X10.685Y-15.425
X10.685Y-15.525
X10.685Y-15.625
X10.685Y-15.73
X10.685Y-15.83
X10.685Y-15.93
X10.685Y-16.03
X10.69Y-3.915
X10.695Y-2.47
X10.7Y-3.37
X10.74Y-2.615
X10.74Y-2.715
X10.74Y-2.815
X10.74Y-2.915
X10.74Y-3.015
X10.74Y-3.115
X10.74Y-3.215
X10.74Y-4.12
X10.74Y-4.22
X10.74Y-4.32
X10.74Y-4.42
X10.74Y-4.52
X10.74Y-4.62
X10.74Y-4.72
X10.74Y-6.42
X10.74Y-8.75
X10.74Y-8.85
X10.74Y-8.95
X10.74Y-9.05
X10.74Y-9.15
X10.74Y-9.25
X10.74Y-9.35
X10.74Y-9.45
X10.74Y-10.86
X10.74Y-10.96
X10.74Y-11.06
X10.74Y-11.16
X10.74Y-11.26
X10.74Y-11.36
X10.74Y-11.46
X10.74Y-11.56
X10.74Y-12.475
X10.74Y-12.575
X10.74Y-12.675
X10.74Y-12.775
X10.74Y-12.875
X10.74Y-12.975
X10.74Y-13.075
X10.74Y-13.175
X10.74Y-19.04
X10.74Y-19.64
X10.74Y-20.14
X10.74Y-20.24
X10.74Y-20.34
X10.74Y-20.44
X10.74Y-20.54
X10.74Y-20.64
X10.74Y-20.74
X10.74Y-20.84
X10.74Y-20.94
X10.74Y-21.04
X10.785Y-13.86
X10.785Y-14.31
X10.785Y-14.415
X10.785Y-14.865
X10.79Y-5.575
X10.79Y-5.825
X10.835Y-3.765
X10.84Y-2.32
X10.84Y-4.875
X10.84Y-16.51
X10.84Y-16.61
X10.84Y-16.71
X10.84Y-16.81
X10.84Y-16.91
X10.84Y-17.01
X10.84Y-17.11
X10.84Y-17.21
X10.84Y-17.31
X10.84Y-17.41
X10.84Y-17.51
X10.84Y-17.61
X10.84Y-17.71
X10.84Y-17.81
X10.84Y-17.91
X10.84Y-18.01
X10.84Y-18.11
X10.84Y-18.21
X10.84Y-18.31
X10.84Y-18.41
X10.84Y-19.04
X10.84Y-19.64
X10.885Y-4.27
X10.885Y-4.72
X10.885Y-6.27
X10.885Y-14.415
X10.885Y-14.865
X10.895Y-4.065
X10.9Y-2.765
X10.9Y-3.215
X10.925Y-2.535
X10.94Y-7.04
X10.94Y-7.14
X10.94Y-7.24
X10.94Y-7.34
X10.94Y-7.44
X10.94Y-7.54
X10.94Y-7.64
X10.94Y-7.74
X10.94Y-19.04
X10.94Y-19.64
X10.99Y-4.27
X10.99Y-4.72
X10.995Y-12.902
X10.995Y-13.352
X10.995Y-13.48
X11.0Y-2.765
X11.0Y-3.215
X11.03Y-14.71
X11.035Y-6.63
X11.04Y-19.04
X11.04Y-19.64
X11.086Y-6.822
X11.089Y-7.226
X11.089Y-7.676
X11.095Y-4.27
X11.095Y-4.72
X11.095Y-5.62
X11.095Y-6.07
X11.1Y-2.765
X11.1Y-3.215
X11.135Y-15.325
X11.135Y-15.425
X11.135Y-15.525
X11.135Y-15.625
X11.135Y-15.73
X11.135Y-15.83
X11.135Y-15.93
X11.135Y-16.03
X11.14Y-19.04
X11.14Y-19.64
X11.15Y-3.37
X11.2Y-2.765
X11.2Y-3.215
X11.2Y-4.27
X11.2Y-4.72
X11.2Y-7.227
X11.2Y-7.677
X11.2Y-8.75
X11.2Y-8.85
X11.2Y-8.95
X11.2Y-9.05
X11.2Y-9.15
X11.2Y-9.25
X11.2Y-9.35
X11.2Y-9.45
X11.2Y-10.86
X11.2Y-10.96
X11.2Y-11.06
X11.2Y-11.16
X11.2Y-11.26
X11.2Y-11.36
X11.2Y-11.46
X11.2Y-12.475
X11.2Y-12.575
X11.2Y-12.675
X11.2Y-12.775
X11.2Y-12.875
X11.2Y-12.975
X11.2Y-13.075
X11.2Y-13.84
X11.2Y-13.94
X11.2Y-14.04
X11.2Y-14.14
X11.2Y-14.24
X11.2Y-14.34
X11.2Y-14.44
X11.2Y-20.14
X11.2Y-20.24
X11.2Y-20.34
X11.2Y-20.44
X11.2Y-20.54
X11.2Y-20.64
X11.2Y-20.74
X11.2Y-20.84
X11.2Y-20.94
X11.2Y-21.04
X11.24Y-5.62
X11.24Y-5.72
X11.24Y-5.82
X11.24Y-5.92
X11.24Y-6.02
X11.24Y-6.12
X11.24Y-6.22
X11.24Y-6.32
X11.24Y-19.04
X11.24Y-19.64
X11.265Y-2.265
X11.29Y-4.875
X11.2958Y-15.345
X11.2958Y-15.445
X11.2958Y-15.545
X11.2958Y-15.645
X11.2958Y-15.745
X11.2958Y-15.845
X11.2958Y-15.945
X11.2958Y-16.045
X11.3Y-2.765
X11.3Y-3.215
X11.3Y-6.775
X11.3Y-7.225
X11.305Y-4.27
X11.305Y-4.72
X11.34Y-19.04
X11.34Y-19.64
X11.345Y-4.065
X11.355Y-3.36
X11.355Y-3.81
X11.375Y-2.535
X11.405Y-2.765
X11.405Y-3.215
X11.41Y-2.415
X11.41Y-4.27
X11.41Y-4.72
X11.44Y-16.51
X11.44Y-16.61
X11.44Y-16.71
X11.44Y-16.81
X11.44Y-16.91
X11.44Y-17.01
X11.44Y-17.11
X11.44Y-17.21
X11.44Y-17.31
X11.44Y-17.41
X11.44Y-17.51
X11.44Y-17.61
X11.44Y-17.71
X11.44Y-17.81
X11.44Y-17.91
X11.44Y-18.01
X11.44Y-18.11
X11.44Y-18.21
X11.44Y-18.31
X11.44Y-18.41
X11.44Y-19.04
X11.44Y-19.64
X11.46Y-3.36
X11.46Y-3.81
X11.48Y-14.71
X11.495Y-4.865
X11.495Y-4.97
X11.495Y-5.075
X11.499Y-6.704
X11.5Y-8.75
X11.5Y-8.85
X11.5Y-8.95
X11.5Y-9.05
X11.5Y-9.15
X11.5Y-9.25
X11.5Y-9.35
X11.5Y-9.45
X11.5Y-10.86
X11.5Y-10.96
X11.5Y-11.06
X11.5Y-11.16
X11.5Y-11.26
X11.5Y-11.36
X11.5Y-11.46
X11.5Y-12.475
X11.5Y-12.575
X11.5Y-12.675
X11.5Y-12.775
X11.5Y-12.875
X11.5Y-12.975
X11.5Y-13.075
X11.5Y-13.84
X11.5Y-13.94
X11.5Y-14.04
X11.5Y-14.14
X11.5Y-14.24
X11.5Y-14.34
X11.5Y-14.44
X11.5Y-20.14
X11.5Y-20.24
X11.5Y-20.34
X11.5Y-20.44
X11.5Y-20.54
X11.5Y-20.64
X11.5Y-20.74
X11.5Y-20.84
X11.5Y-20.94
X11.5Y-21.04
X11.54Y-4.12
X11.54Y-4.22
X11.54Y-4.32
X11.54Y-4.42
X11.54Y-4.52
X11.54Y-4.62
X11.54Y-4.72
X11.54Y-5.62
X11.54Y-5.72
X11.54Y-5.82
X11.54Y-5.92
X11.54Y-6.02
X11.54Y-6.12
X11.54Y-6.22
X11.54Y-6.32
X11.54Y-6.84
X11.54Y-6.94
X11.54Y-7.04
X11.54Y-7.14
X11.54Y-7.24
X11.54Y-7.34
X11.54Y-7.44
X11.54Y-7.54
X11.54Y-7.64
X11.54Y-7.74
X11.54Y-19.04
X11.54Y-19.64
X11.555Y-2.265
X11.562Y-2.626
X11.562Y-2.726
X11.562Y-2.826
X11.562Y-2.926
X11.562Y-3.026
X11.562Y-3.126
X11.562Y-3.226
X11.5958Y-15.345
X11.5958Y-15.445
X11.5958Y-15.545
X11.5958Y-15.645
X11.5958Y-15.745
X11.5958Y-15.845
X11.5958Y-15.945
X11.5958Y-16.045
X11.625Y-14.42
X11.625Y-14.87
X11.625Y-20.14
X11.625Y-20.59
X11.66Y-3.82
X11.695Y-5.62
X11.695Y-6.07
X11.705Y-10.86
X11.705Y-11.31
X11.73Y-13.855
X11.73Y-14.305
X11.73Y-14.42
X11.73Y-14.87
X11.74Y-16.605
X11.74Y-17.68
X11.756Y-12.477
X11.756Y-12.927
X11.805Y-3.96
X11.825Y-15.345
X11.825Y-15.795
X11.84Y-4.12
X11.84Y-4.22
X11.84Y-4.32
X11.84Y-4.42
X11.84Y-4.52
X11.84Y-4.62
X11.84Y-4.72
X11.84Y-6.84
X11.84Y-6.94
X11.84Y-7.04
X11.84Y-7.14
X11.84Y-7.24
X11.84Y-7.34
X11.84Y-7.44
X11.84Y-7.54
X11.84Y-7.64
X11.84Y-7.74
X11.845Y-5.47
X11.85Y-6.225
X11.85Y-6.33
X11.862Y-2.626
X11.862Y-2.726
X11.862Y-2.826
X11.862Y-2.926
X11.862Y-3.026
X11.862Y-3.126
X11.862Y-3.226
X11.87Y-13.48
X11.89Y-5.62
X11.89Y-6.07
X11.905Y-14.415
X11.905Y-14.865
X11.945Y-4.865
X11.945Y-4.97
X11.945Y-5.075
X11.949Y-6.704
X11.95Y-3.82
X11.96Y-8.75
X11.96Y-8.85
X11.96Y-8.95
X11.96Y-9.05
X11.96Y-9.15
X11.96Y-9.25
X11.96Y-9.35
X11.96Y-9.45
X11.96Y-10.86
X11.96Y-10.96
X11.96Y-11.06
X11.96Y-11.16
X11.96Y-11.26
X11.96Y-11.36
X11.96Y-11.46
X11.96Y-12.475
X11.96Y-12.575
X11.96Y-12.675
X11.96Y-12.775
X11.96Y-12.875
X11.96Y-12.975
X11.96Y-13.075
X11.96Y-15.345
X11.96Y-15.445
X11.96Y-15.545
X11.96Y-15.645
X12.0Y-4.265
X12.0Y-4.715
X12.0Y-6.98
X12.0Y-7.43
X12.01Y-2.762
X12.01Y-3.212
X12.02Y-15.805
X12.02Y-16.68
X12.045Y-5.295
X12.053Y-6.704
X12.06Y-5.62
X12.06Y-5.72
X12.06Y-5.82
X12.06Y-5.92
X12.095Y-6.98
X12.095Y-7.18
X12.105Y-4.265
X12.105Y-4.715
X12.11Y-2.76
X12.11Y-3.21
X12.155Y-11.705
X12.155Y-12.305
X12.16Y-3.615
X12.16Y-3.865
X12.16Y-13.3025
X12.16Y-14.1775
X12.16Y-14.3
X12.16Y-15.175
X12.2Y-6.98
X12.2Y-7.43
X12.21Y-2.76
X12.21Y-3.21
X12.21Y-4.265
X12.21Y-4.715
X12.26Y-8.75
X12.26Y-8.85
X12.26Y-8.95
X12.26Y-9.05
X12.26Y-9.15
X12.26Y-9.25
X12.26Y-9.35
X12.26Y-9.45
X12.26Y-10.86
X12.26Y-10.96
X12.26Y-11.06
X12.26Y-11.16
X12.26Y-11.26
X12.26Y-11.36
X12.26Y-11.46
X12.26Y-12.475
X12.26Y-12.575
X12.26Y-12.675
X12.26Y-12.775
X12.26Y-12.875
X12.26Y-12.975
X12.26Y-13.075
X12.26Y-15.345
X12.26Y-15.445
X12.26Y-15.545
X12.26Y-15.645
X12.295Y-5.295
X12.295Y-5.47
X12.3Y-6.225
X12.3Y-6.33
X12.303Y-6.704
X12.305Y-6.98
X12.305Y-7.43
X12.31Y-4.265
X12.31Y-4.715
X12.315Y-2.76
X12.315Y-3.21
X12.36Y-3.47
X12.36Y-3.92
X12.36Y-5.62
X12.36Y-5.72
X12.36Y-5.82
X12.36Y-5.92
X12.405Y-8.09
X12.405Y-8.54
X12.405Y-8.67
X12.405Y-9.12
X12.41Y-13.735
X12.41Y-14.185
X12.41Y-14.29
X12.41Y-14.89
X12.415Y-10.78
X12.415Y-11.23
X12.415Y-15.195
X12.415Y-15.645
X12.42Y-12.365
X12.42Y-12.815
T4
X1.625Y-20.75
X1.625Y-20.95
X1.66Y-12.05
X1.66Y-12.25
X1.92Y-1.62
X1.92Y-2.055
X1.934Y-7.998
X1.934Y-8.176
X2.12Y-1.62
X2.12Y-2.055
X2.134Y-7.998
X2.134Y-8.176
X2.18Y-10.64
X2.38Y-10.64
X3.24Y-10.64
X3.44Y-10.64
X4.16Y-7.96
X4.16Y-8.16
X4.16Y-10.64
X4.22Y-15.02
X4.36Y-10.64
X4.42Y-15.02
X4.46Y-12.2
X4.475Y-20.015
X4.64Y-7.96
X4.64Y-8.16
X4.66Y-12.2
X4.675Y-20.015
X5.06Y-10.64
X5.26Y-10.64
X5.265Y-16.525
X5.335Y-2.73
X5.335Y-2.93
X5.465Y-16.525
X5.74Y-2.74
X5.74Y-2.94
X5.875Y-19.815
X6.075Y-19.815
X6.1Y-2.74
X6.1Y-2.94
X6.14Y-3.64
X6.14Y-3.84
X6.625Y-19.835
X6.825Y-19.835
X7.185Y-18.045
X7.385Y-18.045
X7.48Y-15.075
X7.68Y-15.075
X7.7Y-6.82
X7.7Y-7.02
X7.795Y-19.89
X7.995Y-19.89
X8.02Y-2.62
X8.02Y-2.82
X8.46Y-12.38
X8.55Y-16.5
X8.575Y-15.05
X8.58Y-19.92
X8.65Y-17.92
X8.65Y-18.12
X8.66Y-12.38
X8.675Y-3.12
X8.675Y-3.32
X8.75Y-16.5
X8.775Y-15.05
X8.78Y-19.92
X8.9Y-3.98
X8.98Y-2.42
X8.98Y-4.28
X8.98Y-4.48
X9.1Y-3.98
X9.18Y-2.42
X9.78Y-18.68
X9.78Y-18.88
X9.98Y-18.68
X9.98Y-18.88
X9.98Y-20.0
X10.18Y-18.68
X10.18Y-18.88
X10.18Y-20.0
X10.38Y-18.68
X10.38Y-18.88
X10.92Y-10.2
X10.92Y-10.4
X11.12Y-10.2
X11.12Y-10.4
X11.52Y-12.04
X11.64Y-17.86
X11.64Y-18.06
X11.72Y-12.04
X11.86Y-1.5
X12.06Y-1.5
X12.4Y-11.92
X12.4Y-12.12
X12.4Y-20.775
X12.4Y-20.975
T5
X3.05Y-1.475
X7.1Y-1.475
X8.65Y-1.475
X11.05Y-1.475
T6
X1.443Y-21.52
X1.466Y-1.174
X12.672Y-1.131
X12.68Y-21.508
T0
M30
