%TF.GenerationSoftware,KiCad,Pcbnew,(6.0.1)*%
%TF.CreationDate,2022-02-07T23:08:56-07:00*%
%TF.ProjectId,atari_gravitar_black_widow,61746172-695f-4677-9261-76697461725f,rev?*%
%TF.SameCoordinates,Original*%
%TF.FileFunction,Legend,Bot*%
%TF.FilePolarity,Positive*%
%FSLAX46Y46*%
G04 Gerber Fmt 4.6, Leading zero omitted, Abs format (unit mm)*
G04 Created by KiCad (PCBNEW (6.0.1)) date 2022-02-07 23:08:56*
%MOMM*%
%LPD*%
G01*
G04 APERTURE LIST*
%ADD10C,0.444500*%
G04 APERTURE END LIST*
D10*
X314579000Y-439928000D02*
X315764333Y-439928000D01*
X313901666Y-440351333D02*
X315171666Y-440774666D01*
X315171666Y-439674000D01*
X315764333Y-438912000D02*
X315764333Y-438573333D01*
X315679666Y-438404000D01*
X315595000Y-438319333D01*
X315341000Y-438150000D01*
X315002333Y-438065333D01*
X314325000Y-438065333D01*
X314155666Y-438150000D01*
X314071000Y-438234666D01*
X313986333Y-438404000D01*
X313986333Y-438742666D01*
X314071000Y-438912000D01*
X314155666Y-438996666D01*
X314325000Y-439081333D01*
X314748333Y-439081333D01*
X314917666Y-438996666D01*
X315002333Y-438912000D01*
X315087000Y-438742666D01*
X315087000Y-438404000D01*
X315002333Y-438234666D01*
X314917666Y-438150000D01*
X314748333Y-438065333D01*
X313224333Y-502920000D02*
X313224333Y-503936000D01*
X313224333Y-503428000D02*
X311446333Y-503428000D01*
X311700333Y-503597333D01*
X311869666Y-503766666D01*
X311954333Y-503936000D01*
X176614666Y-35348333D02*
X176530000Y-35433000D01*
X176360666Y-35517666D01*
X175937333Y-35517666D01*
X175768000Y-35433000D01*
X175683333Y-35348333D01*
X175598666Y-35179000D01*
X175598666Y-35009666D01*
X175683333Y-34755666D01*
X176699333Y-33739666D01*
X175598666Y-33739666D01*
X174921333Y-35348333D02*
X174836666Y-35433000D01*
X174667333Y-35517666D01*
X174244000Y-35517666D01*
X174074666Y-35433000D01*
X173990000Y-35348333D01*
X173905333Y-35179000D01*
X173905333Y-35009666D01*
X173990000Y-34755666D01*
X175006000Y-33739666D01*
X173905333Y-33739666D01*
X82804000Y-33739666D02*
X83820000Y-33739666D01*
X83312000Y-33739666D02*
X83312000Y-35517666D01*
X83481333Y-35263666D01*
X83650666Y-35094333D01*
X83820000Y-35009666D01*
X223520000Y-33739666D02*
X224536000Y-33739666D01*
X224028000Y-33739666D02*
X224028000Y-35517666D01*
X224197333Y-35263666D01*
X224366666Y-35094333D01*
X224536000Y-35009666D01*
X273642666Y-33739666D02*
X274658666Y-33739666D01*
X274150666Y-33739666D02*
X274150666Y-35517666D01*
X274320000Y-35263666D01*
X274489333Y-35094333D01*
X274658666Y-35009666D01*
X272965333Y-35348333D02*
X272880666Y-35433000D01*
X272711333Y-35517666D01*
X272288000Y-35517666D01*
X272118666Y-35433000D01*
X272034000Y-35348333D01*
X271949333Y-35179000D01*
X271949333Y-35009666D01*
X272034000Y-34755666D01*
X273050000Y-33739666D01*
X271949333Y-33739666D01*
M02*
